<svg xmlns="http://www.w3.org/2000/svg" width="52" height="24"><path fill="#fff" d="M39.12.1c6.58 0 11.9 5.34 11.9 11.95 0 6.6-5.32 11.95-11.9 11.95-6.6 0-11.92-5.35-11.92-11.95S32.54.08 39.12.08z"/><path fill="#F38B00" d="M14.43 11.97c0 1.43-1.15 2.6-2.58 2.6-1.4 0-2.56-1.18-2.56-2.6 0-1.42 1.13-2.58 2.55-2.58 1.43 0 2.58 1.15 2.58 2.58zm-2.58 6.6c-1.4 0-2.57 1.17-2.57 2.6 0 1.42 1.16 2.58 2.57 2.58 1.43 0 2.57-1.16 2.57-2.6 0-1.4-1.15-2.58-2.57-2.58zm0-13.2c1.43 0 2.58-1.16 2.58-2.58 0-1.44-1.15-2.6-2.58-2.6-1.42 0-2.57 1.16-2.57 2.6 0 1.4 1.15 2.56 2.57 2.56zm-9.27 13.2c-1.42 0-2.58 1.18-2.58 2.6 0 1.42 1.16 2.58 2.58 2.58 1.42 0 2.58-1.16 2.58-2.6 0-1.4-1.16-2.58-2.58-2.58zm0-9.18C1.16 9.4 0 10.53 0 11.97c0 1.42 1.16 2.56 2.58 2.56 1.42 0 2.58-1.14 2.58-2.56 0-1.44-1.16-2.6-2.58-2.6zm0-9.2C1.16.2 0 1.36 0 2.8c0 1.4 1.16 2.57 2.58 2.57 1.42 0 2.58-1.16 2.58-2.6C5.16 1.38 4 .2 2.58.2zm18.87 18.37c-1.42 0-2.58 1.17-2.58 2.6 0 1.42 1.13 2.58 2.56 2.58 1.44 0 2.58-1.16 2.58-2.6 0-1.4-1.12-2.58-2.55-2.58zm0-13.2C22.87 5.37 24 4.2 24 2.8 24 1.34 22.9.2 21.46.2c-1.42 0-2.57 1.16-2.57 2.6 0 1.4 1.14 2.56 2.56 2.56z"/><path fill="#56A0D3" d="M22.07 12.14c-.04-.02-.06 0-.06 0l-.06.05s0 0 0 .02c0 0 .05-.02.05-.02l.03-.03h.04s.05 0 0-.04zm1.47-.73c0 .1-.03.2-.05.3 0 .02.06.06.08.1 0 .03-.05.08-.07.04 0 0-.02-.02-.03-.02-.08.33-.25.64-.5.9l.18.17c0-.03 0-.05 0-.07 0-.06.03-.08.03-.08s.1 0 .1.1c0 .02.03 0 .04.04 0 0 0 .05 0 .05s.02.03.03.05c0 .02 0 .03 0 .05.4-.44.66-1 .7-1.65h-.5zm-.64 2.02c.1-.06.2-.15.27-.22v-.02c-.03 0-.05 0-.06 0 0-.02 0-.04 0-.08l-.26-.26c-.02.05-.05.08-.05.08l-.02.06c.16.07.2.14.2.18 0 .04-.1.13-.1.16 0 .04.02.06.02.1zm-1.37 0v.45c.13 0 .26 0 .38-.04-.06-.07-.08-.07-.12-.07 0 0-.03-.06-.05-.12-.04-.06.04-.08.03-.13-.02-.04-.18-.02-.18-.02s.02 0-.05-.04v-.02zm-.2-.03c-.47-.04-.93-.2-1.26-.5 0 0 .02.03.06.05.1.08.1.12.1.17 0 .05-.23.04-.23.04-.08.05-.2.07-.24.07-.03 0-.04-.02-.06-.04h-.02c.46.4 1.03.65 1.66.68v-.5zm-2-1.82c0-.06 0-.12 0-.17h-.5c.02.25.07.48.15.7 0-.02 0-.02 0-.05 0-.03.04 0 .05-.02 0 0 0-.02 0-.03 0-.03 0-.03 0-.05 0 0 0 0 0-.02 0-.05.02-.1.02-.1s0-.05.04-.1c.02-.04.1-.06.12-.1 0 0 .03-.05.1-.05 0 0 0 0 .03 0h-.02zm0-.36c.03-.52.24-.97.57-1.34l-.34-.32c-.43.43-.68 1-.72 1.66h.5zm.7-1.46c.36-.33.8-.5 1.32-.53v-.48c-.64.02-1.2.26-1.66.66l.34.37zm1.5-.53c.4.02.76.14 1.07.34-.02 0-.03-.07-.04-.07-.02 0 .03-.02.03-.02-.08-.07-.08-.1-.06-.13.03 0 .07.04.1.08.04.05.08.1.1.1.03 0 .1 0 .1.06 0 .03.04.04.05.1 0 0 0 .03 0 .04l.15-.13c-.02-.04-.04-.06-.08-.1l-.1.06s-.04 0-.04 0c0-.05 0-.1 0-.1s-.06-.03-.06-.05c0 0 .02-.07 0-.1 0-.02-.04-.04-.04-.04s0-.08-.03-.13c0-.03-.1-.1-.1-.1s0 0 0-.02c-.32-.14-.67-.22-1.03-.25v.5l-.04-.02zM23 9.9c0 .03 0 .04.02.06.04.04.08.1.1.12.02.03.05.05.06.08 0 0 .03-.03.05-.03.03-.02.05 0 .06.04 0 .04-.07.03-.05.06 0 .02.06 0 .08 0 0 .02.02.04 0 .07-.02 0-.04.03-.04.03 0 .02 0 .03 0 .05.02 0 .07-.02.07.03s.04.08.04.14c0 .02 0 .04 0 .07 0 .07.04.1.05.16 0 0 .03 0 .04 0v.07c0 .02 0 .06 0 .1 0 0 0 .02 0 .05 0 .04 0 .07 0 .12 0 .04 0 .08 0 .13h.5c0-.33-.1-.65-.2-.93 0 0-.03 0-.04 0 0 0-.03.03-.06.03-.02 0-.05-.04-.05-.04s-.14-.2-.16-.2c0 0-.03-.03-.1-.04-.05 0-.03-.03-.03-.03s-.06-.04-.1-.05l-.05-.08s0-.02 0-.04c-.02 0-.1 0-.1 0s-.04-.03-.07-.05l-.07.1H23zm1.9 1.4c0 1.9-1.55 3.43-3.47 3.43-1.9 0-3.47-1.53-3.47-3.42 0-1.9 1.55-3.42 3.47-3.42 1.9 0 3.46 1.53 3.46 3.43zm-3.46-.57c-.05 0-.1 0-.14.02.02 0 .02 0 .02 0 0 .04.02.12.02.12-.04.07-.2.1-.2.1-.04.03-.02.06-.07.1-.03 0-.05 0-.06.04 0 .05 0 .08-.02.1 0 .03.02.05 0 .06 0 .03 0 .1-.03.12 0 0-.03-.02-.05-.03-.02 0-.02-.1-.04-.1 0 0 0 0 0 .03 0 .04 0 .07 0 .12.03-.02.02-.02.03-.02.06 0 0 .04.05.04.02 0 .03-.02.04-.07 0-.07.03-.07.06-.07 0 .02 0 .05 0 .07 0 0 .02 0 .02.03s-.06.06-.06.13c-.02.05-.03.05-.05.08-.03 0-.02-.07-.05-.04 0 0 .04.07.04.07.04-.02.05-.06.08-.06 0-.03.03-.03.04-.04.03-.02.03-.1.03-.12 0-.03.04-.02.17-.03.13 0 .13.05.1.1 0 .03.03-.02.03 0 0 .05-.05.1-.06.13-.02.03.02.04 0 .05-.02.02-.02.04-.02.04-.07.06-.08.03-.12.04-.04.02-.1.02-.1.02s0 0-.02 0c.1.07.2.13.34.13.04 0 .05 0 .1-.02 0-.06.03-.17.08-.2.07-.03.12 0 .14 0 .03 0 .04-.03.05-.06 0-.02.02-.07 0-.1 0-.05-.04-.03-.05-.06 0 0 .05 0 0-.05-.03-.05-.02-.1-.03-.1-.02-.02-.04 0-.05-.03 0-.02 0-.04.03-.07 0-.02.04-.02.04-.07 0 0-.04 0-.05-.02 0-.02 0-.06 0-.06s-.05 0-.07-.03c0-.03-.04-.08-.1-.1-.04-.03-.13 0-.13 0 0-.06-.06-.1-.06-.1-.04-.06 0-.06 0-.08.04-.04.08 0 .1-.02v.05zm2-1.3c.12.1.22.23.3.37.03.02.07.06.08.08 0 .03 0 .03 0 .05 0 .02.02.02.02.03 0 0 .02 0 .02.02.02.04.03.07.05.1.03.03.03.05.04.08.14.3.23.68.26 1.06h.5c-.04-.83-.4-1.6-.92-2.15l-.36.35zm-1.83-.85c.4.02.8.13 1.14.3l.1-.03s-.04 0 0 0 .04 0 .08.03c.07.02.07 0 .1 0 .02 0 .03.05.06.08.03.02.02 0 .06.02.04.02.1.07.1.1 0 .02.03-.02.06.1 0 0 .04.06.07.1l.3-.34c-.56-.5-1.3-.83-2.14-.86v.4s0 0 .02 0c.05.03.07.03.07.08 0 0 0 0 0 .02zm-2.05.7c.47-.42 1.1-.68 1.8-.7v-.5c-.85.02-1.6.34-2.16.86l.35.34zm-.9 1.94c.03-.7.3-1.32.77-1.8l-.35-.34c-.55.55-.9 1.3-.9 2.14h.5-.02zm.76 2c-.05-.07-.1-.14-.15-.2-.07-.03-.07-.04-.1-.07-.07-.05-.03-.1-.05-.1 0 0 0 .02-.02.03 0 0-.03 0-.07 0-.02 0-.05-.07-.05-.07-.05-.03-.04-.07-.07-.1-.03 0-.03 0-.05 0 0 0 0 0-.03-.03-.02 0-.06 0-.06 0-.02-.02-.06-.1-.06-.1s0 .04-.05.04-.1-.08-.13-.1c0 0-.02.03-.05 0-.02 0-.05-.1-.05-.12 0 0-.02-.03-.04-.07 0 0 0-.14.02-.16.02-.03.02 0 .04-.05 0-.07.04-.07.07-.07 0 0 .02 0 .02.03 0 .02.04 0 .07 0 0 0 0-.03 0-.05 0 0 .02 0 .05 0 .02-.03.06-.03.07 0-.04-.2-.07-.4-.08-.6h-.5c.04.85.37 1.6.92 2.17l.34-.36zm1.94.83c-.68-.02-1.3-.28-1.8-.7l-.34.33c.57.52 1.3.84 2.14.87v-.5zm1.97-.72c-.14.15-.3.25-.48.36-.05.1-.14.18-.14.2-.02.04-.04 0-.06.06-.05.02-.03.07-.07.07-.05 0-.08.03-.08.03s-.14.15-.27 0c-.03-.03-.07-.03-.1-.07l-.02-.02c-.17.03-.36.07-.54.07v.48c.82-.03 1.56-.35 2.12-.86l-.34-.35zm.92-1.93c-.03.7-.33 1.33-.78 1.8l.36.35c.55-.55.88-1.3.9-2.13h-.5l.02-.02zm-1.16-.18h.3c0-.07-.03-.15-.05-.23 0 0 0 .04-.03.05-.03.04-.07.03-.1.04-.03 0 0 .04 0 .05 0 .03.03.03 0 .06 0 .04-.04.02-.06.02 0 0-.03-.02-.06 0h.02zm-.56-.84c.02.03.04.07.07.1 0 0 .02-.03.06 0 .07 0 .14 0 .2 0 .04 0 .05.12.1.13.02.03 0 .03 0 .06 0 .04 0 .02 0 .04 0 .03.02.05.04.03.02-.03.07-.05.12-.05.08.02.06.07.08.08.03 0 .02.02.03.03.04 0 .02.03 0 .04 0 0 0 .02 0 .04-.02.03-.04.05-.04.07V11c.02 0 .05.02.08 0 0-.02.07-.1.06-.13 0-.1-.03-.17-.06-.24-.02-.02-.03-.03-.04-.04-.03-.04-.15-.1-.17-.14 0-.03 0-.03.04-.05.02 0 .03-.04.02-.08 0 0-.03-.04-.04-.05-.03-.03-.07-.1-.12-.16-.03 0-.04-.03-.07-.05l-.35.34-.02-.02zm-.97-.46c.33 0 .6.14.84.33l.33-.35c-.3-.3-.73-.47-1.17-.5v.52zm-1.03.3c.23-.2.52-.3.84-.32v-.5c-.47.03-.87.2-1.2.48l.36.35zm-.23.26c.03-.03.06-.07.1-.13l-.35-.33c-.3.33-.5.73-.52 1.2h.23c-.02 0-.03-.04-.03-.07 0-.02 0-.1 0-.13 0 0 .03-.03.04-.04 0-.02 0-.04 0-.05 0 0 .03-.03.04-.05.02-.03.02-.07.07-.1.04-.02.04 0 .07 0 .04 0 .04-.04.04-.04s0-.02 0-.05c.02-.05.13-.07.13-.07s0-.04.06-.1c.06-.03.1-.06.1-.06zm-.26.74c0-.02 0-.04 0-.07 0 0-.02-.02-.03-.02-.07 0-.1.04-.1.07H20v.02zm-.32.2h-.16c0 .1.03.2.07.33 0-.02 0-.04 0-.05 0 0 .03 0 .03-.02.02 0 0 0 0-.03 0 0-.03-.04-.03-.06 0-.04 0-.07.02-.1 0-.03 0-.04.02-.06 0-.04 0 0 .05-.04v.02h-.02zm.7.83c-.18-.18-.3-.4-.34-.65-.04-.05-.07-.04-.07-.04s0 .1 0 .12c0 0-.02.06-.04.06-.03-.02-.04-.04-.04-.04s-.05 0-.06 0c0-.02-.04-.07 0-.1.04-.02.03.03.06 0 0-.02-.04-.16 0-.16.03 0 .06.06.08.06 0 0 0 0 .04 0 0-.03 0-.06 0-.1h-.23c0 .04 0 .1-.03.12 0 0-.1 0-.1.04-.02.07.02.04.02.1 0 .04-.03 0 0 .06 0 .04.08.06.1.13 0 .05.03.06.03.08 0 .02-.03.05 0 .08.02.06.04.12.04.15 0 .02 0 .06.02.17 0 .1 0 .05.06.1 0 .04 0 .08 0 .1.02.03.04.05.08.07l.33-.34zm.72.43c-.22-.06-.43-.16-.6-.3l-.34.35c.26.23.6.4.97.45-.07-.04-.1-.06-.1-.06s-.03-.04-.1-.1c-.03-.07-.03-.13-.03-.13.04-.02.04-.04.04-.04s.03-.1.07-.14c.04-.02.07-.03.1-.04zm1.1-.2s-.03.02-.06.04c.06.02.2.04.25.07.03.03.12.05.12.05.05 0 .08 0 .1-.02l-.06-.06c-.04 0-.07 0-.07-.02-.08-.03-.06 0-.1-.02-.06 0-.15-.03-.18-.04v-.02zm1.1-.75c.02-.1.04-.22.04-.32h-.27c.02.02.04.04.05.04.03.04.02.07.02.1s.04.03.08.07c.05.06.05.1.07.13zm-.74.44c-.02.02-.03.02-.04.03.02 0 .05 0 .08 0 0-.04 0-.07.02-.1.02 0 .07 0 .1 0 .02 0 .02-.03.04.03 0 .07 0 .1 0 .1s-.02.05-.02.14c0 .05-.03.02-.03.08l.04.04s0 0 0-.03c.03-.04.06-.07.06-.04.03.02.04.07.06.13.17-.2.3-.43.38-.7h-.02c-.02 0-.08.03-.14.04-.07 0-.12 0-.12 0s-.04-.02-.06 0c0 .02 0 .07-.06.07-.07-.02-.03-.07-.05-.07-.03 0 0 0-.03.04-.03.03-.07.1-.07.12 0 0-.12.02-.13.04 0 0-.03.06-.05.07h.04zm-.42-.28l.15.12c0-.02-.03-.08-.03-.08l-.07-.03h-.03v-.04l-.04.03v-.02zm-.08.45c.03 0 .04-.04.06-.04-.02 0-.04 0-.05.05zm-1.4-.13c.16.16.37.25.6.28 0 0 0 .02 0 .04 0 0 0 0 .03 0 .02 0 .05 0 .1-.03.03-.02.02 0 .05 0 0 0 .02-.04.05-.05.02-.03.03-.05.04-.06v.12c.16-.02.3-.06.46-.13-.03 0-.07-.05-.07-.05-.03 0 0 .04 0 .06 0 .02-.06.05-.06.04-.04-.05-.07-.05-.07-.05-.02.06-.04.05-.04.05-.06-.1-.1-.05-.13-.07-.03-.04-.04-.03-.04-.03-.04 0-.05.02-.08.03 0 0-.02.04-.05.04 0 .05-.02.08-.02.08-.05 0-.03-.02-.08 0-.02.05-.06.05-.1.05 0 0 0-.03 0-.03s0-.02 0-.02c0-.03 0-.05 0-.05 0-.1 0-.12 0-.13 0-.02.04 0 .08 0v-.1c0-.02 0-.03 0-.03v-.14c-.16 0-.28-.05-.4-.14l-.3.33v-.03zm0-.77s0-.02 0-.03c-.02 0-.06 0-.06.02 0 0 .03 0 .06 0zm-.44.15c.05.2.15.36.27.5l.32-.32c0-.02-.02-.03-.05-.05-.02.02 0 .05-.02.07 0 0-.02.03-.03.06 0 .02-.07.06-.1.04 0-.02 0-.15-.03-.15s0 0 0 .06c0 .05-.04.03-.05.02-.02 0-.03 0-.07-.04-.04-.03 0-.07 0-.07s-.04 0-.05 0c0 0 0 0-.03 0-.02 0-.02-.06-.02-.06s-.03 0-.1 0c0 0-.03 0-.05-.02v-.02zm1.12-1.52c-.27.02-.52.14-.72.28l.2.2c.03 0 0 .02.06.02.03.02.02 0 .07 0 0 0 0 .02 0 .03.02.03.04 0 .04 0 .03-.02.02 0 .05 0 .05-.02.02-.04.05-.07 0-.02 0-.03 0-.06 0-.04.04-.05.05-.07.02-.02.03-.02.05 0 0 .03-.03.05 0 .06 0 0 .04 0 .13-.03v-.35zm.85.26c-.2-.13-.43-.24-.68-.26v.36c.07 0 .13.04.13.04v-.02c.06-.08.12-.06.12-.08.02 0 .02-.02.04-.05.03 0 .07 0 .07.03 0 .02 0 .1-.03.17-.03.03-.07.05-.1.07.07.03.12.06.17.1l.04-.05s.02 0 .02 0 0 0 .03-.04l.14-.14s0 0-.02 0c-.02-.03-.07-.03.02-.1 0-.02.03-.02.05-.03zm.2.2c0-.02-.03-.03-.05-.04l-.04.03c.03.02.08.06.06.04 0 0 0 0 .02-.04zm.57-1.8c.03-.03.04 0 .06 0 0 0 0 0 .07 0 .02.02.03.05.03.07 0 .04.03.06.03.08 0 .02-.04.04-.06.03-.03 0-.07-.06-.07-.06l-.06-.06s-.03-.03 0-.04zm-1.4-.33s0 0 .03 0c.02 0 .07 0 .07 0l.1-.04.1-.03.03-.02s.13 0 .26.08c0 .02 0 .02.03.03l-.06-.02s.1.08.03.03v.04s-.08.05-.1.06c-.05 0-.1 0-.1 0h-.05l-.15.03s-.1 0-.14-.04c-.06-.04-.06-.05-.06-.05l-.02-.02.02-.02zM23 9.95c.03.02.1.1.1.12 0 0 .02 0 .02.02-.04-.05-.06-.1-.12-.13zm.2 5c.02 0 .28-.05.66-.1.4-.05.56-.03.85-.1.3-.06.47-.25.55-.33 0 0 .02 0 0 .02 0 0-.2.38-.64.6-.43.24-.92.2-1.04.16-.13 0-.3-.07-.46-.14-.18-.03-.4-.07-.52-.07 0 0 0-.02.03-.03.07 0 .28-.06.42-.13.25-.08.46-.32.62-.5.17-.14.43-.42.6-.5 0 0 0 0 0 .03 0 .02-.15.18-.2.33-.06.15-.15.32-.26.45-.12.14-.3.25-.58.32 0 0-.03 0 0 0zM26 13.2s-.06.47-.5.87c-.34.3-.64.4-.8.45-.15.04-.3.06-.46.1-.15.02-.36.08-.4.1 0 0-.03 0 0-.02 0-.02.05-.04.2-.25.17-.2.3-.7.3-.7s.1-.25.17-.4c.1-.17.35-.53.4-.58 0 0 .03-.02.03 0 0 0-.07.13-.08.28-.07.27-.07.55-.1.65-.04.1-.1.3-.23.48-.15.18-.15.16-.26.28-.02 0 0 0 0 0s.13-.07.2-.14c.1-.06.2-.15.35-.26.18-.1.36-.14.68-.34.33-.2.46-.4.52-.53 0 0 0-.02 0 0v.02zm-.77-1.4s-.02.16 0 .26c0 .1.13.53.13.8-.02.22-.06.43-.22.62v.02s.28-.35.38-.5c.13-.15.36-.4.48-.53.1-.13.22-.33.27-.6 0 0 .06.4-.1.77-.16.38-.34.5-.44.62-.13.1-.48.35-.65.45-.17.1-.33.2-.33.2s.14-.26.2-.42c0-.14.05-.4.05-.6 0-.2.06-.88.2-1.1h.02zm-.07-1.1s-.02-.02-.02 0c0 .04 0 .36.1.73.06.27.22.8.26.88.02.14 0 .4-.03.52 0 0 0 .04.02.02 0-.02.16-.3.24-.38.1-.1.32-.38.37-.52.08-.14.2-.44.2-.87-.03-.4-.14-.62-.14-.62s-.02-.02 0 0c0 .02 0 .2 0 .35-.03.16-.07.27-.16.47-.1.18-.17.4-.2.5-.02.08-.06.25-.07.4 0 .1-.07.2-.07.2h-.02s.06-.1.07-.34c.02-.23-.07-.46-.12-.57-.12-.2-.4-.6-.4-.77h-.02zm.47-1.48c-.02 0 0 .02 0 .02s.13.2.1.52c0 .33-.03.35-.05.64 0 .3.04.64.04.64-.02 0-.03-.18-.12-.4-.12-.24-.58-.6-.58-.6s-.16-.15-.17-.23c0-.02-.02 0-.02 0s.05.23.18.5c.13.3.43.6.52.77.1.18.15.2.2.52h.03s0-.14.1-.44.13-.26.18-.54c.06-.3.03-.56 0-.62-.02-.06-.12-.45-.4-.75v-.03zm-.07 1.2s-.04-.14-.16-.26c-.05-.06-.14-.17-.27-.26-.13-.1-.25-.2-.34-.26-.2-.17-.4-.47-.38-.74 0 0 .1.16.2.27.13.1.4.26.53.37.1.1.23.24.3.4 0 0-.13-.3-.14-.43-.04-.13-.06-.33-.13-.53s-.16-.3-.28-.37c-.14-.08.5.07.68.7.05.2 0 .63 0 .8 0 .18 0 .3 0 .3h-.02zm-1.62-2.26s.15.05.32.12c.17.06.35.15.5.3.22.25.28.48.32.67.03.06.07.16.07.16.02 0 0 0 0 0s-.42-.33-.54-.46c-.13-.15-.28-.42-.4-.53-.1-.1-.26-.25-.26-.25v-.03zm-5.5 7.07s.4.48 1.04.5c.5 0 .84-.27.84-.27s.36-.27.55-.36c.15-.08.38 0 .38 0s-.27.08-.5.26c-.27.2-.35.24-.6.5l.22.18s.15-.22.45-.47c.28-.27.45-.37.64-.42 0 0 .58.25 1.08.88l.23-.2s-.5-.5-1.1-.76c0 0 .06-.04.33 0 .1 0 .2.1.33.2.14.07.37.22.54.3.15.07.38.12.55.12.18 0 .7-.07 1.07-.5-.25.1-.37.2-.74.2-.2 0-.46-.07-.78-.22-.33-.14-.55-.24-.93-.27-.38 0-.56.07-.6.1 0 0-.16-.07-.5-.07-.34 0-.65.08-.84.2-.2.08-.54.3-.97.3-.4 0-.66-.2-.66-.2h-.02l-.02-.02zm1.26-.3c-.02 0-.27-.06-.66-.1-.4-.04-.57 0-.84-.1-.32-.06-.47-.23-.56-.3 0 0 0-.02 0 0 0 0 .2.38.64.6.43.24.95.17 1.06.14.12-.02.3-.08.46-.14.18-.04.4-.1.52-.1 0 0 0 0-.03 0-.05-.03-.2-.03-.42-.14-.33-.18-.47-.35-.63-.5-.15-.16-.44-.42-.6-.5 0 0 0 0 0 .02.02.02.14.17.2.34.07.14.14.3.26.43.12.14.3.25.6.32 0 0 .02 0 0 .02v.02zm-2.8-1.7s.06.47.5.88c.33.32.65.42.8.46.16.03.33.05.48.08.15.03.35.06.4.1 0-.04-.06-.05-.23-.27-.15-.2-.3-.68-.3-.68s-.06-.2-.13-.36c-.08-.18-.36-.6-.4-.63 0 0-.04 0-.04 0 0 .03.07.14.1.3.03.15.08.54.12.64.03.12.1.33.22.5.16.18.16.15.27.25 0 .02 0 .02 0 .02s-.14-.06-.24-.13c-.1-.07-.13-.12-.28-.2-.17-.1-.4-.2-.72-.38-.33-.2-.47-.4-.52-.55 0 0-.03-.02-.03 0v-.02zm.75-1.4s0 .16 0 .27c-.02.1-.14.53-.12.77 0 .22.06.44.2.65 0 0-.27-.35-.37-.5-.12-.15-.38-.38-.5-.5-.1-.16-.22-.34-.28-.6 0 0-.06.37.1.77.18.36.35.52.47.62.13.13.48.36.66.46.18.1.3.2.3.2s.02 0 .02 0-.13-.27-.16-.4c-.04-.16-.07-.42-.08-.6 0-.2-.08-.92-.22-1.13v-.02h-.02zm.04-1.1s.02-.04.03 0c0 .03-.02.47-.07.73-.07.27-.24.8-.27.87 0 .06-.03.4 0 .53 0 0 0 .02 0 0-.03 0-.2-.27-.27-.37-.1-.08-.32-.35-.37-.5-.07-.13-.22-.5-.2-.94.04-.44.14-.54.14-.54 0 .02-.02.2 0 .34.03.17.08.34.18.5.1.2.16.4.18.46.03.1.07.25.1.38 0 .12.05.22.05.22s-.02-.1-.03-.33c0-.25.05-.4.14-.6.1-.2.38-.58.38-.76zm-.5-1.48c.03 0 .04 0 .04 0s-.13.17-.13.5c0 .32.07.4.07.68s-.04.65-.04.65h.02s0-.2.1-.44c.15-.24.6-.6.6-.6s.13-.15.14-.23c0-.03.02-.02.02-.02s-.03.23-.16.52c-.13.3-.4.58-.5.75-.08.17-.15.23-.22.55 0 0-.02-.14-.12-.45-.1-.3-.14-.25-.2-.53-.04-.27 0-.6.02-.66.02-.06.1-.42.37-.7v-.02zm.08 1.2s.06-.14.18-.26c.07-.05.15-.14.27-.25.13-.1.26-.2.35-.28.18-.16.34-.45.34-.74 0 0-.07.17-.2.27-.1.13-.4.3-.5.4-.14.1-.26.25-.3.43 0 0 .1-.35.13-.47.03-.13.07-.33.13-.53.07-.2.14-.28.27-.37v-.02s-.5.08-.7.72c-.05.2.03.64 0 .8 0 .2 0 .3 0 .3h.03zm1.6-2.26s-.1.05-.27.1c-.16.08-.36.18-.5.33-.23.25-.3.47-.34.67-.03.1-.07.17-.07.17s.44-.34.56-.48c.14-.16.27-.43.4-.53.1-.12.23-.26.23-.26z"/><path fill="#F38B00" d="M50.02 13.86H48.2l-.43 1.83H46.3l2-7.58h1.73l1 3.8C51.02 5.3 45.68 0 39.12 0c-5.24 0-9.7 3.4-11.28 8.13h.86v5.27c0 .78.33 1.18.93 1.18s.94-.4.94-1.2V8.12h1.5v5.26c0 1.7-1.02 2.45-2.43 2.45-.9 0-1.64-.3-2.05-.97 1.3 5.23 5.98 9.1 11.58 9.1 5.3 0 9.8-3.47 11.35-8.26l-.44-1.8h-.02zM37.57 15.7h-1.24l-2.25-4.6v4.6h-1.35V8.13h1.43l2.03 4.4v-4.4h1.37v7.58zm4.27-6.26h-2.08v1.84h1.62v1.35h-1.62v3.08h-1.53V8.15h3.62v1.32h-.02l.02-.02zM44 13v2.7h-1.48V8.14h1.8c1.6 0 2.62.8 2.62 2.4 0 1.6-1.04 2.45-2.7 2.45H44z"/><path fill="#F18B21" d="M44.27 11.8H44V9.32h.3c.8 0 1.22.42 1.22 1.22 0 .84-.44 1.23-1.25 1.23v.02zm4.18.85l.67-2.8.64 2.8h-1.3z"/></svg>