<?xml version="1.0" encoding="utf-8"?>
<!-- Generator: Adobe Illustrator 16.0.3, SVG Export Plug-In . SVG Version: 6.00 Build 0)  -->
<!DOCTYPE svg PUBLIC "-//W3C//DTD SVG 1.1//EN" "http://www.w3.org/Graphics/SVG/1.1/DTD/svg11.dtd">
<svg version="1.1" id="Layer_1" xmlns="http://www.w3.org/2000/svg" xmlns:xlink="http://www.w3.org/1999/xlink" x="0px" y="0px"
	 width="20px" height="22px" viewBox="0 0 20 22" enable-background="new 0 0 20 22" xml:space="preserve">
<path fill="#F9A801" d="M15.992,7.06c-1.219,0-2.297,0.556-3.033,1.415L7.864,5.031C7.953,4.7,8.016,4.358,8.016,4
	c0-2.206-1.798-4-4.008-4S0,1.794,0,4s1.798,4,4.008,4C5.135,8,6.15,7.53,6.879,6.78l5.184,3.504
	c-0.049,0.251-0.078,0.51-0.078,0.775c0,0.232,0.029,0.458,0.067,0.679l-5.177,3.476C6.147,14.468,5.132,14,4.008,14
	C1.798,14,0,15.794,0,18s1.798,4,4.008,4s4.008-1.794,4.008-4c0-0.359-0.063-0.704-0.154-1.036l5.042-3.385
	c0.734,0.896,1.839,1.481,3.088,1.481c2.21,0,4.008-1.795,4.008-4C20,8.855,18.202,7.06,15.992,7.06z M4.008,6
	C2.903,6,2.004,5.103,2.004,4s0.899-2,2.004-2s2.004,0.897,2.004,2S5.113,6,4.008,6z M4.008,20c-1.105,0-2.004-0.896-2.004-2
	s0.899-2,2.004-2s2.004,0.896,2.004,2S5.113,20,4.008,20z M15.992,13.061c-1.104,0-2.004-0.896-2.004-2s0.898-2,2.004-2
	s2.004,0.897,2.004,2S17.098,13.061,15.992,13.061z"/>
</svg>
