<svg version="1.1" xmlns="http://www.w3.org/2000/svg" x="0px" y="0px" width="148px" height="148px" viewBox="0 0 148 148">
<path fill="#7FC342" d="M148,74c0,40.837-33.163,74-74,74S0,114.837,0,74S33.163,0,74,0S148,33.163,148,74"/>
  <path fill="#FFFFFF" d="M70.437,106.479c-0.754-3.906-0.891-7.537-1.37-11.307h-6.784c1.85-5.48,3.632-10.895,5.413-16.307 c3.631,2.809,7.194,2.809,10.757,0c1.782,5.412,3.563,10.826,5.414,16.307h-6.715c-0.686,4.111-1.097,7.264-1.781,11.375 L70.437,106.479z M59.817,50.978c-3.769,0-6.784-3.221-6.715-7.126c0-3.906,3.083-7.126,6.852-7.058c3.631,0,6.646,3.22,6.646,7.058 C66.531,47.826,63.585,50.978,59.817,50.978 M78.043,74.686c-2.193,4.316-7.606,4.385-9.867,0c-0.685,0.548-1.439,1.096-2.124,1.645 c-0.548,0.41-1.096,0.479-1.645,0.068c-0.822-0.549-0.822-1.645,0-2.33c0.959-0.753,1.918-1.507,2.878-2.261 c0.274-0.206,0.479-0.617,0.617-0.959c0.617-2.535,2.741-4.248,5.208-4.316c2.467,0,4.591,1.644,5.207,4.179 c0.137,0.548,0.412,0.891,0.822,1.233c0.891,0.685,1.781,1.371,2.672,2.056c0.686,0.549,0.822,1.439,0.344,2.056 c-0.48,0.616-1.234,0.753-1.919,0.206C79.413,75.85,78.729,75.302,78.043,74.686 M71.259,63.722 c-0.548-3.631-1.85-7.194-2.741-10.757c-0.068-0.206-0.685-0.822-0.891-0.891c-1.233-0.274-1.165-0.274-2.398-0.548 c-0.274-0.068-0.685,0.068-0.891,0.343c-2.261,2.672-7.468,2.398-9.456,0c-0.274-0.343-0.617-0.274-1.028-0.343 c-1.165-0.206-0.822-0.137-1.987,0.137c-0.411,0.068-1.439,0.891-1.645,1.302c-1.439,3.631-2.946,7.674-4.18,11.374 c-1.645,4.865-3.083,7.743-4.042,13.567c-0.343,2.191,1.233,3.357,2.741,3.082c0.479-0.068,1.233-0.685,1.713-1.918l4.248-10.826 l-3.152,19.665c1.782,0.822,3.631,1.507,5.55,1.919c0.342,0.068,0.685,0.137,0.753,0.686c0.617,4.248,1.302,8.428,1.987,12.676 c0.206,1.164,0.411,2.261,0.548,3.426c1.987,0,3.837,0,5.756,0c0.274,0,0.479-0.206,0.548-0.48c0.48-2.672,0.891-5.275,1.302-8.085 c-0.753,0-1.438,0-2.124,0c-1.918,0-2.672-1.097-2.055-3.015c1.302-3.975,2.604-7.948,3.905-11.922 c0.411-1.165,0.754-2.33,1.165-3.494c-0.137-0.069-0.274-0.138-0.411-0.138c-1.713-0.479-2.741-1.713-3.015-3.495 c-0.274-1.712,0.411-3.151,1.713-4.179c0.685-0.548,1.37-1.028,1.987-1.576c0.274-0.274,0.548-0.617,0.685-0.959 c0.686-1.781,1.782-3.151,3.357-4.179c0.617-0.411,1.302-0.686,1.987-1.028C71.259,63.928,71.259,63.859,71.259,63.722"/>
  <path fill="#FFFFFF" d="M41.865,45.702c3.289,0,6.03,2.741,5.961,6.03c-0.068,3.289-2.809,6.03-6.029,6.03 c-3.357,0-6.03-2.741-6.03-6.098C35.767,48.237,38.439,45.702,41.865,45.702"/>
  <path fill="#FFFFFF" d="M44.811,89.691l1.302-4.592c0,0,0.411-1.918-1.165-1.713c-2.193,0.274-5.413-1.37-4.865-5.55 c0.822-5.893,1.987-8.291,3.563-13.155c0.342-1.028,1.028-2.81,1.37-3.906c-1.576-0.137-1.028,0.068-2.672,0.137 c-3.631,0.068-7.194,0.685-10.826,0.959c-0.754,0.069-1.096,0.411-1.096,1.233c0,6.783,0,13.566,0,20.35 c0,0.891,0.342,1.166,1.096,1.097c1.028,0,2.056,0,3.152,0c0.068,0.616,0.068,1.165,0.206,1.645 c0.959,3.974,3.426,20.282,3.495,20.282c1.438,0.068,5.755,0.137,9.661,0.137c0.274,0,1.987-10.621,2.672-15.143 C49.607,91.061,45.907,90.238,44.811,89.691"/>
  <path fill="#FFFFFF" d="M93.733,41.248c0,4.18-3.22,7.605-7.126,7.605c-3.975,0-7.126-3.426-7.126-7.605s3.22-7.605,7.126-7.605 S93.733,37.068,93.733,41.248"/>
  <path fill="#FFFFFF" d="M111.205,41.796c0,1.713-2.123,3.083-4.796,3.083s-4.796-1.37-4.796-3.083s2.123-3.083,4.796-3.083 S111.205,40.083,111.205,41.796"/>
  <path fill="#FFFFFF" d="M112.233,49.881c0,3.357-3.495,6.098-6.099,6.098s-6.098-2.741-6.098-6.098s2.056-6.098,6.098-6.098 C110.178,43.783,112.233,46.524,112.233,49.881"/>
  <path fill="#FFFFFF" d="M118.194,77.221c-0.274-1.234-0.891-3.906-1.165-5.139c-0.548-2.056-1.918-11.785-2.945-13.567 c-0.822-1.37-2.057-1.576-2.673-1.918c-0.138-0.068-1.645,1.713-4.933,1.85c-3.289,0.137-5.071-1.782-5.208-1.782 c-0.548,0.069-2.398,0.48-3.289,1.987c-1.028,1.781-2.397,11.511-2.946,13.566c-0.343,1.233-0.891,3.906-1.164,5.139 c-0.275,1.233,2.329,1.508,2.329,1.508l0.343,0.068c-0.48,2.467-1.028,6.92-1.508,9.455h7.194 c0.548,6.578,0.686,10.895,1.438,17.609h5.276c0.754-7.057,1.097-10.552,1.851-17.678h7.057c-0.548-2.604-1.027-7.194-1.576-9.799 C117.029,78.521,118.4,78.111,118.194,77.221"/>
  <path fill="#7FC342" d="M120.113,69.272l-10.141,10.209c-1.919,1.782-6.03,2.397-8.977-0.411c-2.74-2.604-1.508-6.372,0.48-8.428 l9.935-10.004c1.097-1.438,5.345-4.59,9.388-0.822C124.635,63.448,121.621,67.97,120.113,69.272"/>
  <path fill="#FFFFFF" d="M105.793,81.742c-1.851,0-3.7-0.616-5.276-2.123c-1.165-1.098-1.781-2.535-1.851-4.043 c0-1.85,0.822-3.837,2.33-5.345l9.936-10.003c0.686-0.891,2.604-2.604,5.139-2.81c1.85-0.206,3.631,0.479,5.207,1.987 c1.371,1.302,2.125,2.877,2.057,4.59c-0.069,2.741-1.851,5.002-2.811,5.893l-10.141,10.209 C109.287,81.126,107.574,81.742,105.793,81.742z M116.688,58.72c-0.138,0-0.274,0-0.48,0c-1.918,0.206-3.631,1.508-4.18,2.33 l-0.068,0.069l-9.936,10.003c-1.232,1.233-1.918,2.878-1.918,4.317c0,1.164,0.479,2.191,1.371,3.082 c2.74,2.604,6.439,1.92,8.016,0.412l10.141-10.209c0.96-0.822,2.33-2.81,2.33-4.865c0-1.302-0.548-2.535-1.645-3.563 C119.223,59.269,117.988,58.72,116.688,58.72z"/>
  <path fill="#FFFFFF" d="M120.387,63.791c0.274,2.261-1.37,4.317-3.631,4.591c-2.262,0.274-4.316-1.37-4.591-3.631 s1.37-4.317,3.632-4.591C118.058,59.954,120.113,61.53,120.387,63.791"/>
  <path fill="#FFFFFF" d="M117.098,77.426h-6.166c0,0-3.084-0.411-3.016-3.083c0.069-2.672,3.084-2.535,3.084-2.535h6.166 L117.098,77.426z"/>
  <path fill="#FFFFFF" d="M93.596,80.852c0,0-3.014-0.616-2.672-2.877c0.205-1.234,1.027-5.688,1.303-6.921 c0.479-2.056,2.123-11.991,3.151-13.772c0.685-1.165,2.466-1.782,3.288-1.987v-1.233c-0.137-2.946-0.616-3.631-4.795-3.837 l-6.099,0.068c-3.563,0-5.345,0-8.907,0c-1.781,0-3.632,0.274-4.248,1.096c-1.166,1.508-0.96,2.056-0.96,7.743l0.48,5.208 c0,0.068,0.822-0.068,1.781,0.206c3.016,0.822,5.482,3.974,6.168,6.441c0.137,0.548,4.11,3.152,3.631,3.837 c0.822,3.837-3.975,4.385-3.631,4.18c1.507,4.591,3.563,10.414,5.344,15.622c0.686,1.987,0,3.289-2.193,3.289h-4.453 c0.686,5.07,1.233,7.812,1.303,8.29l8.152,0.206C90.855,103.258,93.117,83.318,93.596,80.852"/>
</svg>
