<svg version="1.1" xmlns="http://www.w3.org/2000/svg" x="0px" y="0px" width="216px" height="216px" viewBox="0 0 216 216">
  <path fill="#D85967" d="M216,108c0,59.6-48.4,108-108,108C48.4,216,0,167.6,0,108C0,48.4,48.4,0,108,0C167.6,0,216,48.4,216,108"/>
  <path fill="#FFFFFF" d="M159.2,154.8H54.3c-1.3,0-2.5-0.7-3.2-1.899c-0.6-1.2-0.6-2.601,0.1-3.7L103.5,62c0.7-1.1,1.8-1.8,3.1-1.8 l0,0c1.3,0,2.4,0.7,3.1,1.8l52.6,87.3c0.7,1.101,0.7,2.5,0.101,3.7C161.7,154.1,160.5,154.8,159.2,154.8 M60.7,147.5h92.1 l-46.2-76.6L60.7,147.5z"/>
  <rect x="102.9" y="129.1" fill="#FFFFFF" width="7.3" height="7.301"/>
  <polygon fill="#FFFFFF" points="110.2,126.6 103,126.6 101.8,97 111.2,97 "/>
</svg>
