<svg version="1.1" xmlns="http://www.w3.org/2000/svg" x="0px" y="0px" width="148px" height="148px" viewBox="0 0 148 148">
  <path fill="#D85967" d="M148,74c0,40.837-33.163,74-74,74S0,114.837,0,74S33.163,0,74,0S148,33.163,148,74"/>
  <path fill="#FFFFFF" d="M87.038,54.673C86.543,47.861,80.872,42.481,74,42.481s-12.542,5.38-13.038,12.191 C47.206,58.364,37.343,67.84,37.343,79.207c0,14.732,16.582,26.243,36.657,26.243c20.076,0,36.657-11.511,36.657-26.243 C110.657,67.84,100.794,58.364,87.038,54.673z M66.189,60.776v-5.208c0-4.385,3.494-7.879,7.879-7.879 c4.316,0,7.879,3.563,7.879,7.879v5.208c0,3.152,1.646,7.4,3.77,9.798l3.494,3.837c0.959,1.097,2.604,1.165,3.7,0.206 c1.097-0.96,1.165-2.604,0.206-3.701l-3.633-3.837c-1.232-1.37-2.397-4.385-2.397-6.235v-0.47 c7.953,2.755,13.224,7.96,13.224,13.626c0,8.428-11.511,15.76-26.171,15.76c-14.663,0-26.174-7.4-26.174-15.76 c0-5.601,5.15-10.751,12.95-13.53v0.375c0,1.919-1.165,4.865-2.398,6.235l-3.494,3.837c-0.959,1.097-0.891,2.741,0.206,3.701 c1.096,0.959,2.741,0.891,3.7-0.206l3.495-3.837C64.544,68.245,66.189,63.996,66.189,60.776z M73.932,100.174 c-17.472,0-31.382-9.592-31.382-20.967c0-0.98,0.122-1.947,0.324-2.896c1.704,10.707,15.133,18.656,31.195,18.656 c15.632,0,28.861-7.533,31.056-17.91c0.111,0.709,0.188,1.426,0.188,2.15C105.313,90.514,91.473,100.174,73.932,100.174z"/>
</svg>
