<svg version="1.1" xmlns="http://www.w3.org/2000/svg" x="0px" y="0px" width="216px" height="216px" viewBox="0 0 216 216">
  <style type="text/css">
    .st1{fill-rule:evenodd;fill:#FFFFFF;}
  </style>
  <path fill="#D85967" d="M216,108c0,59.6-48.4,108-108,108C48.4,216,0,167.6,0,108C0,48.4,48.4,0,108,0C167.6,0,216,48.4,216,108"/>
  <path class="st1" d="M64.4,76.7c29.1,0,58.1,0,87.2,0c4.2,0,7.5,3.4,7.5,7.5c0,15.9,0,31.7,0,47.6c0,4.2-3.4,7.5-7.5,7.5 c-29.1,0-58.1,0-87.2,0c-4.2,0-7.5-3.4-7.5-7.5c0-15.9,0-31.7,0-47.6C56.9,80.1,60.3,76.7,64.4,76.7L64.4,76.7z M130.1,88.5 c8.1,0,15.5,4.9,18.6,12.4c3.1,7.5,1.4,16.1-4.4,21.9c-7.8,7.8-20.6,7.8-28.4,0c-7.8-7.8-7.8-20.6,0-28.4 C119.5,90.7,124.6,88.5,130.1,88.5L130.1,88.5z M117.6,116.9c7.2-6.8,14.3-13.6,21.5-20.5c0.2-0.2,0.2-0.6-0.1-0.8 c-6.2-4.3-14.6-3.5-20,1.8c-5.1,5.1-6.1,13.2-2.2,19.3C117,117.1,117.4,117.2,117.6,116.9L117.6,116.9z M142.7,100.2 c-7.2,6.8-14.3,13.6-21.5,20.5c-0.2,0.2-0.2,0.6,0.1,0.8c6.2,4.3,14.6,3.5,20-1.8c4.5-4.5,5.8-11.3,3.4-17.1 c-0.3-0.8-0.7-1.5-1.2-2.3C143.3,100,142.9,100,142.7,100.2L142.7,100.2z M85.9,88.5c8.2,0,15.5,4.9,18.6,12.4 c3.1,7.5,1.4,16.1-4.4,21.9c-7.8,7.8-20.6,7.8-28.4,0c-7.8-7.8-7.8-20.6,0-28.4C75.3,90.7,80.3,88.5,85.9,88.5L85.9,88.5z M73.4,116.9c7.2-6.8,14.3-13.6,21.5-20.5c0.2-0.2,0.2-0.6-0.1-0.8c-6.2-4.3-14.6-3.5-20,1.8c-5.1,5.1-6.1,13.2-2.2,19.3 C72.7,117.1,73.1,117.2,73.4,116.9L73.4,116.9z M98.4,100.2c-7.2,6.8-14.3,13.6-21.5,20.5c-0.2,0.2-0.2,0.6,0.1,0.8 c6.2,4.3,14.6,3.5,20-1.8c4.5-4.5,5.8-11.3,3.4-17.1c-0.3-0.8-0.7-1.5-1.2-2.3C99,100,98.6,100,98.4,100.2L98.4,100.2z"/>
</svg>
