<svg version="1.1" xmlns="http://www.w3.org/2000/svg" x="0px" y="0px" width="148px" height="148px" viewBox="0 0 148 148">
  <path fill="#7FC342" d="M148,74c0,40.837-33.163,74-74,74S0,114.837,0,74S33.163,0,74,0S148,33.163,148,74"/>
  <path fill="#FFFFFF" d="M71.054,76.056c-0.343,1.233-1.302,2.261-2.604,2.878c-3.152,1.576-6.509,2.535-10.004,2.945 c-2.809,0.344-5.413-2.055-5.481-4.795c0-1.098,0.343-1.439,1.439-1.439c2.056,0,3.289-1.096,3.563-3.152 c0.274-2.261,0-4.454-0.411-6.646c-1.028-5.618-1.028-11.237,1.096-16.65c0.617-1.645,0.548-2.878-0.411-4.248 c-1.096-1.507-1.918-3.152-2.878-4.796c-0.479-0.822-0.411-1.37,0.274-2.056c5.481-5.208,11.991-8.085,19.734-7.674 c6.234,0.274,11.579,2.877,16.238,6.92c1.85,1.644,1.85,1.713,0.617,3.837c-1.028,1.713-2.057,3.426-3.016,5.139 c-0.273,0.411-0.342,1.097-0.137,1.576c2.467,5.893,2.672,11.922,1.576,18.157c-0.412,2.193-0.754,4.385-0.412,6.578 c0.138,0.754,0.48,1.576,0.96,2.261c0.479,0.754,1.233,1.027,2.124,1.027c0.343,0,0.754-0.068,1.096,0 c0.48,0.138,0.96,0.344,0.549,0.96c-0.068,0.068-0.068,0.206-0.068,0.274c-0.686,3.563-3.016,5.412-6.51,4.727 c-2.946-0.547-5.824-1.301-8.496-2.672c-1.233-0.616-2.398-1.37-2.946-2.74c-0.068-0.137-0.343-0.274-0.548-0.274 C74.617,76.124,72.904,76.124,71.054,76.056 M74.549,72.287c0.822-0.137,1.713-0.206,2.535-0.343 c5.823-1.37,9.387-7.057,9.387-12.607c0-0.342-0.206-0.753-0.48-0.959c-1.232-0.959-2.397-2.056-3.699-2.81 c-2.672-1.507-4.454-3.631-5.345-6.509c-0.068-0.274-0.343-0.479-0.479-0.753c-0.205,0.206-0.411,0.411-0.549,0.685 c-1.027,2.672-2.877,4.385-5.824,4.796c-2.261,0.274-4.454,0.891-6.44,2.124c-0.274,0.206-0.548,0.548-0.617,0.891 c-0.411,2.33-0.274,4.591,0.411,6.852C65.093,68.724,69.478,72.15,74.549,72.287 M73.932,33.231c-5.481,0-10.347,1.987-14.663,5.481 c-0.891,0.685-0.959,1.096-0.343,2.124c0.754,1.302,1.507,2.604,2.261,3.906c0.754,1.37,1.165,1.439,2.467,0.548 c3.083-2.055,6.44-3.22,10.141-3.289c3.974-0.069,7.606,1.165,10.827,3.426c0.891,0.617,1.438,0.479,2.055-0.411 c0.891-1.507,1.781-3.015,2.74-4.522c0.412-0.686,0.344-1.165-0.273-1.645C84.758,35.287,79.824,33.231,73.932,33.231"/>
  <path fill="#FFFFFF" d="M90.308,111.068H79.893c-1.096,0-1.576-0.342-1.645-1.439c-0.548-6.439-1.096-12.881-1.576-19.321 c-0.068-0.479,0.206-1.097,0.48-1.37c1.438-1.576,3.014-3.016,4.453-4.522c0.479-0.479,0.891-0.616,1.576-0.479 c3.152,0.686,6.234,1.645,9.113,3.015c2.74,1.302,4.658,3.288,5.824,6.029c1.713,3.905,2.74,7.948,3.631,12.06 c0.273,1.37,0.549,2.672,0.754,4.043c0.205,1.301-0.343,1.986-1.713,1.986H90.308"/>
  <path fill="#FFFFFF" d="M57.556,110.863H47.346c-1.713,0-2.124-0.549-1.85-2.193c0.891-5.002,2.056-9.866,3.837-14.594 c1.37-3.632,3.7-6.305,7.4-7.605c2.672-0.959,5.413-1.781,8.154-2.672c0.617-0.206,1.096,0,1.507,0.41 c1.439,1.508,2.946,2.947,4.454,4.454c0.479,0.479,0.685,1.028,0.617,1.713c-0.617,6.03-1.165,12.06-1.645,18.089 c-0.206,2.262-0.274,2.398-2.604,2.398H57.556"/>
  <path fill="#FFFFFF" d="M75.371,38.713C75.165,40.152,74.822,40.7,74,40.7s-1.096-0.48-1.302-1.987 c-0.822-0.137-1.918,0-1.918-1.302c0-0.822,0.479-1.165,1.987-1.371c0.068-0.891,0.137-1.918,1.371-1.987 c0.753,0,1.096,0.548,1.234,1.987c0.891,0.069,1.918,0.069,1.986,1.371C77.357,38.233,76.809,38.507,75.371,38.713"/>
</svg>
