<svg version="1.1" xmlns="http://www.w3.org/2000/svg" x="0px" y="0px" width="216px" height="216px" viewBox="0 0 216 216">
  <path fill="#D85967" d="M216,108c0,59.6-48.4,108-108,108C48.4,216,0,167.6,0,108C0,48.4,48.4,0,108,0C167.6,0,216,48.4,216,108"/>
  <path fill="#FFFFFF" d="M170.3,82.8L153.4,66l-11.5-11.5l-1.9-1.9c-1.2-1.2-2.5-1.8-3.8-1.7c-1.101,0.1-2.2,0.6-3.2,1.7l-2.5,2.5 l-5.8,5.8l-5.8,5.8l-5.801,5.8l-5.8,5.8l-5.8,5.8l-5.8,5.8L90,95.4l-5.8,5.8l-5.8,5.8L50,135.4c-2.3,2.3-2.3,4.8,0,7.1l30.3,30.3 c1.2,1.2,2.5,1.8,3.8,1.7c1.1-0.1,2.2-0.6,3.3-1.7l2.5-2.5l5.8-5.8l5.8-5.8l5.8-5.8l5.8-5.801l5.801-5.8l5.8-5.8l5.8-5.8l5.8-5.8 l5.8-5.801L170.5,89.7C172.6,87.6,172.6,85.1,170.3,82.8z M70.5,142.2c-1,1-2.3,1.5-3.6,1.5c-1.3,0-2.6-0.5-3.6-1.5 c-2-2-2-5.2,0-7.2c1-1,2.3-1.5,3.6-1.5c1.3,0,2.6,0.5,3.6,1.5C72.5,137,72.5,140.2,70.5,142.2z M74.9,130.6c-2-2-2-5.199,0-7.199 c1-1,2.3-1.5,3.6-1.5s2.6,0.5,3.6,1.5c2,2,2,5.199,0,7.199c-1,1-2.3,1.5-3.6,1.5S75.9,131.6,74.9,130.6z M87.8,159.5 c-1,1-2.3,1.5-3.6,1.5c-1.3,0-2.6-0.5-3.6-1.5c-2-2-2-5.2,0-7.2c1-1,2.3-1.5,3.6-1.5c1.3,0,2.6,0.5,3.6,1.5 C89.8,154.2,89.8,157.5,87.8,159.5z M86.4,119.1c-2-2-2-5.199,0-7.199c1-1,2.3-1.5,3.6-1.5s2.6,0.5,3.6,1.5c2,2,2,5.199,0,7.199 c-1,1-2.3,1.5-3.6,1.5S87.4,120.1,86.4,119.1z M99.4,147.9c-1,1-2.3,1.5-3.6,1.5c-1.3,0-2.6-0.5-3.6-1.5c-2-2-2-5.2,0-7.2 c1-1,2.3-1.5,3.6-1.5c1.3,0,2.6,0.5,3.6,1.5C101.4,142.7,101.4,145.9,99.4,147.9z M97.9,107.6c-2-2-2-5.2,0-7.2c1-1,2.3-1.5,3.6-1.5 s2.6,0.5,3.6,1.5c2,2,2,5.2,0,7.2c-1,1-2.3,1.5-3.6,1.5S98.9,108.6,97.9,107.6z M110.9,136.4c-1,1-2.301,1.5-3.601,1.5 s-2.6-0.5-3.6-1.5c-2-2-2-5.2,0-7.2c1-1,2.3-1.5,3.6-1.5s2.601,0.5,3.601,1.5C112.9,131.2,112.9,134.4,110.9,136.4z M109.5,96.1 c-2-2-2-5.2,0-7.2c1-1,2.3-1.5,3.6-1.5c1.301,0,2.601,0.5,3.601,1.5c2,2,2,5.2,0,7.2c-1,1-2.3,1.5-3.601,1.5 C111.8,97.5,110.4,97,109.5,96.1z M122.4,124.9c-1,1-2.301,1.5-3.601,1.5s-2.6-0.5-3.6-1.5c-2-2-2-5.2,0-7.2c1-1,2.3-1.5,3.6-1.5 s2.601,0.5,3.601,1.5C124.4,119.7,124.4,122.9,122.4,124.9z M121,84.5c-2-2-2-5.2,0-7.2c1-1,2.3-1.5,3.6-1.5 c1.301,0,2.601,0.5,3.601,1.5c2,2,2,5.2,0,7.2c-1,1-2.3,1.5-3.601,1.5C123.3,86,122,85.5,121,84.5z M134,113.3c-1,1-2.3,1.5-3.6,1.5 c-1.301,0-2.601-0.5-3.601-1.5c-2-2-2-5.2,0-7.2c1-1,2.3-1.5,3.601-1.5c1.3,0,2.6,0.5,3.6,1.5C135.9,108.1,135.9,111.4,134,113.3z  M132.5,73c-2-2-2-5.2,0-7.2c1-1,2.3-1.5,3.6-1.5c1.301,0,2.601,0.5,3.601,1.5c2,2,2,5.2,0,7.2c-1,1-2.3,1.5-3.601,1.5 C134.8,74.5,133.5,74,132.5,73z M145.5,101.8c-1,1-2.3,1.5-3.6,1.5c-1.301,0-2.601-0.5-3.601-1.5c-2-2-2-5.2,0-7.2 c1-1,2.3-1.5,3.601-1.5c1.3,0,2.6,0.5,3.6,1.5C147.5,96.6,147.5,99.8,145.5,101.8z M157,90.3c-1,1-2.3,1.5-3.6,1.5 c-1.301,0-2.601-0.5-3.601-1.5c-2-2-2-5.2,0-7.2c1-1,2.3-1.5,3.601-1.5c1.3,0,2.6,0.5,3.6,1.5C159,85.1,159,88.3,157,90.3z"/>
</svg>
