<svg version="1.1" xmlns="http://www.w3.org/2000/svg" x="0px" y="0px" width="216px" height="216px" viewBox="0 0 216 216">
  <path fill="#D85967" d="M216,108c0,59.6-48.4,108-108,108C48.4,216,0,167.6,0,108C0,48.4,48.4,0,108,0C167.6,0,216,48.4,216,108"/>
  <path fill="#FCFCFC" d="M65.2,154.3L82.5,137c4.3,1.7,9.3,0.8,12.7-2.7l57.1-57.1c2.2-2.2,5.2-6.8,7.3-11.6 c1.9-0.5,3.7-1.4,5.101-2.9c4.3-4.3,4.3-11.2,0-15.5c-4.3-4.3-11.3-4.3-15.5,0c-1.5,1.5-2.4,3.3-2.9,5.1 c-4.8,2.1-9.399,5.1-11.6,7.3l-57.1,57.1c-3.4,3.399-4.3,8.5-2.7,12.7l-17.3,17.3L65.2,154.3z M96.7,104.5L119.1,82.1 c1.101-1.1,2.9-1.1,4.101,0l6.7,6.7c1.1,1.1,1.1,2.9,0,4.1l-22.4,22.4c-1.1,1.101-2.9,1.101-4.1,0l-6.7-6.7 C95.6,107.4,95.6,105.6,96.7,104.5z"/>
  <path fill="#FCFCFC" d="M61.9,157.5l-7.4-7.4c-2,2-2,5.301,0,7.4C56.6,159.5,59.8,159.5,61.9,157.5z"/>
  <rect x="111.993" y="93.019" transform="matrix(-0.707 0.7072 -0.7072 -0.707 263.6352 87.0069)" fill="#FCFCFC" width="3.6" height="10.2"/>
</svg>
