<svg version="1.1" xmlns="http://www.w3.org/2000/svg" x="0px" y="0px" width="148px" height="148px" viewBox="0 0 148 148">
  <path fill="#7FC342" d="M148,74c0,40.837-33.163,74-74,74S0,114.837,0,74S33.163,0,74,0S148,33.163,148,74"/>
  <path fill="#FFFFFF" d="M33.026,101.477V48.991c1.371-2.261,3.426-2.672,5.893-2.604c6.646,0.137,13.361,0,20.007,0.068 c1.233,0,1.782-0.343,1.713-1.645c-0.068-1.233-0.068-2.398,0-3.631c0.137-3.563,2.398-6.646,6.509-6.578 c4.865,0.068,9.73,0,14.526,0.068c2.467,0,4.591,1.713,5.207,4.042c0.344,1.439,0.48,2.946,0.549,4.454 c0.068,3.769-0.273,3.221,3.152,3.221c6.166,0,12.333,0.068,18.568,0c2.467-0.069,4.521,0.342,5.893,2.604v52.486 c-1.165,1.369-2.33,2.466-4.454,2.466c-23.776-0.068-47.62-0.068-71.396,0C36.657,103.942,34.465,103.736,33.026,101.477 M73.932,98.666c12.744,0.48,23.775-10.414,23.707-23.502c-0.068-12.881-10.346-23.57-23.57-23.638 c-13.361-0.068-23.707,10.757-23.707,23.638C50.292,88.252,61.324,99.078,73.932,98.666 M74.206,41.042c-1.165,0-2.33,0-3.426,0 c-4.317,0.069-3.563-0.685-3.7,3.769c-0.068,1.302,0.479,1.713,1.713,1.713c2.81-0.068,5.687,0,8.565,0 c4.18-0.068,3.631,0.548,3.7-3.837c0-1.165-0.343-1.645-1.576-1.576C77.7,41.042,75.918,41.042,74.206,41.042"/>
  <path fill="#FFFFFF" d="M88.8,74.686c0,5.344-0.206,5.618-5.687,5.55c-3.7,0-3.7,0-3.632,3.632c0.068,5.344-0.343,5.755-5.755,5.755 c-0.48,0-0.959,0-1.439,0c-2.741-0.068-3.7-0.959-3.7-3.769c0-0.686,0-1.302,0-1.986c0-3.563,0-3.563-3.7-3.563 c-0.822,0-1.576,0-2.398,0c-2.124-0.068-3.22-1.097-3.289-3.22c-0.069-1.576,0-3.152,0-4.729c0.068-1.987,1.028-2.946,3.083-3.015 c1.576-0.069,3.152-0.069,4.728,0c1.096,0,1.576-0.411,1.576-1.507c0-1.576-0.068-3.152,0-4.728 c0.137-2.192,1.233-3.289,3.426-3.289c1.37,0,2.672,0,3.973,0c2.125,0,3.289,1.027,3.427,3.151c0.137,1.576,0.068,3.152,0.068,4.728 c-0.068,1.233,0.479,1.713,1.713,1.645c1.438-0.069,2.878-0.069,4.386,0c2.261,0.068,3.151,0.959,3.22,3.152 C88.8,73.246,88.8,74,88.8,74.686"/>
</svg>
