<svg version="1.1" xmlns="http://www.w3.org/2000/svg" x="0px" y="0px" width="148px" height="148px" viewBox="0 0 148 148">
  <path fill="#D85967" d="M148,74c0,40.837-33.163,74-74,74S0,114.837,0,74S33.163,0,74,0S148,33.163,148,74"/>
  <path fill="#FFFFFF" d="M56.459,102.846h-3.495c-1.439,0-2.604-1.164-2.604-2.604V46.25c0-1.439,1.165-2.604,2.604-2.604h3.495 c1.438,0,2.604,1.165,2.604,2.604v53.924C59.063,101.682,57.898,102.846,56.459,102.846z M52.965,45.428 c-0.479,0-0.891,0.411-0.891,0.891v53.924c0,0.48,0.411,0.891,0.891,0.891h3.495c0.479,0,0.891-0.41,0.891-0.891V46.25 c0-0.479-0.411-0.891-0.891-0.891h-3.495V45.428z"/>
  <path fill="#FFFFFF" d="M68.381,105.793c-0.206,0-0.479,0-0.685-0.068l-3.357-0.96c-0.685-0.206-1.233-0.616-1.576-1.233 c-0.343-0.616-0.411-1.302-0.274-1.986l14.389-52.006c0.206-0.686,0.616-1.233,1.233-1.576c0.617-0.342,1.302-0.411,1.986-0.274 l3.357,0.959c1.371,0.411,2.193,1.85,1.851,3.221l-14.389,52.005l0,0c-0.206,0.685-0.617,1.233-1.233,1.576 C69.272,105.656,68.861,105.793,68.381,105.793z M79.413,49.402c-0.138,0-0.274,0.068-0.411,0.137 c-0.205,0.137-0.343,0.274-0.411,0.548l-14.389,52.006c-0.068,0.206,0,0.479,0.069,0.685c0.137,0.206,0.274,0.344,0.548,0.412 l3.357,0.959c0.206,0.068,0.48,0,0.686-0.068c0.206-0.138,0.342-0.274,0.411-0.549l0,0l14.321-52.143 c0.137-0.479-0.138-0.959-0.616-1.027l-3.357-0.959C79.55,49.402,79.481,49.402,79.413,49.402z"/>
  <path fill="#FFFFFF" d="M41.111,105.793c-0.48,0-0.891-0.137-1.302-0.343c-0.617-0.343-1.028-0.892-1.233-1.576L24.187,51.869 c-0.411-1.371,0.411-2.81,1.85-3.221l3.357-0.959c0.685-0.206,1.37-0.068,1.987,0.274c0.617,0.343,1.028,0.891,1.233,1.576 l14.389,52.006c0.206,0.685,0.068,1.37-0.274,1.986c-0.342,0.617-0.891,1.027-1.576,1.233l-3.357,0.96 C41.522,105.793,41.317,105.793,41.111,105.793z M30.08,49.402c-0.068,0-0.137,0-0.206,0l-3.357,0.959 c-0.479,0.137-0.753,0.617-0.617,1.027l14.389,52.006l0,0c0.068,0.205,0.206,0.411,0.411,0.548c0.206,0.138,0.411,0.138,0.685,0.069 l3.357-0.96c0.206-0.068,0.411-0.206,0.548-0.411c0.137-0.205,0.137-0.411,0.069-0.686L30.902,50.019 c-0.068-0.206-0.206-0.411-0.411-0.548C30.354,49.402,30.217,49.402,30.08,49.402z"/>
  <path fill="#FFFFFF" d="M115.248,115.539v-23.45c0-0.479-0.411-0.891-0.891-0.891c-0.114,0-0.224,0.026-0.325,0.068h-2.775 c-0.102-0.042-0.211-0.068-0.325-0.068s-0.224,0.026-0.326,0.068h-2.004V52.434c0-0.003,0-0.006,0-0.01v-0.008 c0-0.037-0.018-0.069-0.022-0.105c-0.009-0.079-0.012-0.157-0.046-0.237l-2.124-5.276c-0.137-0.343-0.479-0.548-0.822-0.548h-0.548 V24.393c0-0.479-0.411-0.891-0.891-0.891c-0.48,0-0.891,0.411-0.891,0.891V46.25h-0.617c-0.342,0-0.686,0.206-0.822,0.548 l-2.124,5.276c-0.061,0.141-0.075,0.28-0.068,0.414v39.669c0,0.479,0.411,0.892,0.891,0.892h1.576v23.501v3.427 c0,0.479,0.411,0.891,0.891,0.891h11.374c0.479,0,0.891-0.412,0.959-0.96v-4.042C115.316,115.751,115.29,115.641,115.248,115.539z  M110.041,115.659H107.3v-22.61h0.411h2.33V115.659z M111.822,93.049h1.645v22.61h-1.645V93.049z M103.258,48.032h1.713l1.418,3.494 h-4.549L103.258,48.032z M101.407,53.308h5.413v37.959h-0.086c-0.102-0.042-0.211-0.068-0.325-0.068s-0.224,0.026-0.325,0.068 h-2.775c-0.102-0.042-0.211-0.068-0.325-0.068s-0.224,0.026-0.325,0.068h-1.251V53.308z M105.519,93.049v22.61h-1.645v-22.61 H105.519z M103.874,119.085v-1.644h2.467h0.068h4.522h2.604v1.644H103.874z"/>
</svg>
