<svg version="1.1" xmlns="http://www.w3.org/2000/svg" x="0px" y="0px" width="148px" height="148px" viewBox="0 0 148 148">
  <path fill="#9266AB" d="M148,74c0,40.837-33.163,74-74,74S0,114.837,0,74S33.163,0,74,0S148,33.163,148,74"/>
  <path fill="#FFFFFF" d="M73.246,34.191c-1.604,0-3.095,0.46-4.362,1.244c-0.172-1.294-0.812-3.162-3.038-3.643 c-4.18-0.891-6.646,3.632-6.92,8.497c0,0.753-0.206,1.507-0.548,2.124c-0.274,0.479-0.686,0.822-1.097,1.028 c-0.548,0.274-1.302,0.342-1.918,0.206c-0.068,0-0.137-0.069-0.206,0c-0.068,0.068-0.137,0.068-0.068,0.206 c0,0,0.068,0.068,0.068,0.137c0.206,0.206,0.548,0.274,0.822,0.343c0.274,0.137,0.617,0.206,0.891,0.206 c0.616,0.137,1.302,0.137,1.918-0.137c0.411-0.137,0.822-0.342,1.096-0.617c2.33-1.987,3.837-7.332,6.235-6.92 c0.247,0.047,0.474,0.193,0.683,0.396c-1.155,1.424-1.848,3.239-1.848,5.223c0,4.591,3.7,8.291,8.291,8.291 c4.591,0,8.291-3.7,8.291-8.291S77.837,34.191,73.246,34.191z"/>
  <path fill="#FFFFFF" d="M101.887,43.646c-0.548-1.028-2.877-1.576-4.385-1.508c-1.233,0.069-2.535,1.302-3.769,2.056 c-3.769,2.535-7.399,5.345-11.374,7.605c-4.385,2.536-9.456,4.043-14.32,2.056c-4.66-1.987-8.976-4.933-13.361-7.537 c-2.124-1.302-3.837-3.083-6.03-4.111c-1.233-0.548-3.426-0.343-4.454,0.479c-0.891,0.754-1.165,2.809-1.028,4.18 c0.137,0.891,1.302,1.781,2.193,2.535c4.454,3.631,9.044,7.126,13.498,10.757c3.357,2.809,4.796,6.373,4.728,10.826 c-0.029,1.815-0.051,3.768-0.068,5.801L55.5,97.297c0.271,0,3.553,0,7.98,0c0.013,6.53,0.036,12.879,0.036,18.156 c0,3.77,1.371,5.414,4.18,5.414c2.946,0.068,4.248-1.508,4.248-5.276c0-4.556,0-11.891,0-18.294c0.429,0,0.858,0,1.288,0 c-0.016,6.542-0.033,14.124,0.014,18.842c0.069,3.426,1.781,5.002,4.865,4.729c2.398-0.206,3.563-1.919,3.563-5.139 c0.032-5.201,0.205-11.793,0.28-18.432c4.527,0,7.806,0,7.806,0l-8.223-20.213c-0.891-10.895,3.426-18.158,12.334-23.434 c0.479-0.206,0.821-0.548,1.232-0.822c2.056-1.439,4.385-2.741,6.029-4.591C102.023,47.209,102.504,44.743,101.887,43.646z"/>
</svg>
