<svg version="1.1" xmlns="http://www.w3.org/2000/svg" x="0px" y="0px" width="148px" height="148px" viewBox="0 0 148 148">
  <path fill="#9266AB" d="M148,74c0,40.837-33.163,74-74,74S0,114.837,0,74S33.163,0,74,0S148,33.163,148,74"/>
  <path fill="#FFFFFF" d="M74.617,76.124c0-2.056,0-4.042-0.068-6.098c-0.138-6.578-4.866-11.922-10.758-12.196 c-6.167-0.274-11.374,4.317-11.854,11.032c-0.411,4.933-0.137,9.936-0.206,14.938c0,0.753,0.068,1.575,0.137,2.535 c1.096,0,1.987,0.137,2.877,0c1.85-0.275,2.33,0.616,2.261,2.535c-0.137,4.316,0,10.825,0,15.211v1.37l0,0v1.507h12.402V86.334h2.33 C72.698,82.977,73.657,79.55,74.617,76.124"/>
  <path fill="#FFFFFF" d="M63.722,41.796c3.974,0.068,6.989,3.152,6.989,7.126c0,3.905-3.152,7.057-7.057,7.057 c-3.837,0-7.126-3.22-7.126-7.057C56.459,44.879,59.68,41.728,63.722,41.796"/>
  <path fill="#FFFFFF" d="M97.091,52.143c-0.64-1.009-1.41-1.519-2.144-1.674c0.007-0.127,0.02-0.252,0.02-0.381 c0-3.974-3.016-7.057-6.988-7.126c-4.043-0.068-7.264,3.083-7.195,7.126c0,3.837,3.289,7.058,7.126,7.058 c1.956,0,3.724-0.792,5.001-2.072c0.047,0.052,0.087,0.102,0.139,0.154c2.123,2.124,5.207,2.261,5.207,2.261l0.205,0.137 C98.461,57.624,98.804,54.746,97.091,52.143z"/>
  <path fill="#FFFFFF" d="M84.895,106.547c-1.233-6.715-1.918-11.648-1.918-18.158h-9.319c2.535-9.387,6.715-20.144,9.182-29.394 c2.056,2.604,9.044,2.055,10.347,0c2.467,9.25,7.811,20.007,10.346,29.394h-9.318c0,6.51-0.617,11.717-1.918,18.158H84.895z"/>
</svg>
