<svg version="1.1" xmlns="http://www.w3.org/2000/svg" x="0px" y="0px" width="216px" height="216px" viewBox="0 0 216 216">
  <path fill="#D85967" d="M216,108c0,59.6-48.4,108-108,108C48.4,216,0,167.6,0,108C0,48.4,48.4,0,108,0C167.6,0,216,48.4,216,108"/>
  <path fill="#FFFFFF" d="M113.813,44.634c2.9-1.192,4.787-3.268,4.787-5.634c0-3.7-4.6-6.7-10.5-6.7s-10.5,3-10.5,6.7 c0,2.226,1.708,4.192,4.326,5.411C96.873,46.415,94.3,51.184,94.3,56.7c0,7.3,7.6,13.3,13.3,13.3c5.7,0,13.3-6,13.3-13.3 C120.9,51.313,118.504,46.734,113.813,44.634z"/>
  <path fill="#FFFFFF" d="M138.6,87c0.588,4.901-3,9.4-7.898,10c-4.9,0.6-9.4-3-10-7.9c-0.602-4.9,3-9.4,7.898-10 C133.6,78.6,138,82,138.6,87z"/>
  <path fill="#FFFFFF" d="M140.6,77.4c-3.5-3.3-7.398-4.7-11.398-4.3c-1.818,0.132-3.49,0.64-4.975,1.324 c-1.729-2.036-3.901-2.432-5.025-3.124c-0.301-0.1-3.602,3.7-10.8,4c-7.2,0.3-11.1-3.9-11.4-3.9c-1.2,0.1-5.2,1-7.2,4.3 c-2.2,3.9-5.2,25.1-6.4,29.6c-0.7,2.7-1.9,8.5-2.5,11.2s5.1,3.3,5.1,3.3l0.7,0.101c-1,5.399-2.2,15.101-3.3,20.601h15.7 c1.2,14.3,1.5,23.8,3.1,38.399h11.5c1.6-15.399,2.398-23,4-38.5H133.1c-1.199-5.699-2.199-15.699-3.398-21.399 c1.6,0.101,4.6-0.8,4.199-2.7c-0.463-2.085-1.342-6.014-1.996-8.939L139,100.2c2.1-1.9,6-6.8,6.1-12.8 C145.2,83.7,143.6,80.2,140.6,77.4z M137,97.7l-6.738,6.8H118.1c0,0-6.6-0.3-6.699,5.5c-0.101,5.8,6.601,6.7,6.601,6.7h0.171 L114.9,120c-3.5,3.3-11.5,4.8-17.5-0.9c-2-1.898-3-4.199-3-6.699c0-3.101,1.5-6.699,4.2-9.399l21.8-21.9l0.1-0.1 c1.2-1.8,4.9-4.7,9.1-5.1c0.4,0,0.7,0,1,0c2.801,0,5.5,1.2,7.9,3.4c2.4,2.3,3.6,5,3.6,7.8C142.1,91.6,139.1,95.9,137,97.7z"/>
</svg>
