<svg version="1.1" xmlns="http://www.w3.org/2000/svg" x="0px" y="0px" width="216px" height="216px" viewBox="0 0 216 216">
  <path fill="#D85967" d="M216,108c0,59.6-48.4,108-108,108C48.4,216,0,167.6,0,108C0,48.4,48.4,0,108,0C167.6,0,216,48.4,216,108"/>
  <path fill="#FCFCFC" d="M74.89,42.09L55.845,143.943l85.521,15.99l19.045-101.853L74.89,42.09z M127.1,146.3l-51.7-9.7 c-0.5-0.1-0.9-0.6-0.8-1.1s0.6-0.9,1.1-0.8l51.7,9.7c0.5,0.1,0.899,0.6,0.8,1.1C128.2,146.1,127.7,146.4,127.1,146.3z M127.9,142.5 l-51.7-9.7c-0.5-0.1-0.9-0.6-0.8-1.1s0.6-0.9,1.1-0.8l51.7,9.699c0.5,0.101,0.899,0.601,0.8,1.101 C128.9,142.3,128.4,142.6,127.9,142.5z M134.7,89.4c-2.158,11.776-12.559,19.911-24.082,19.619l-1.19,6.363l8.03,1.501l-1.286,6.881 l-8.03-1.501l-1.396,7.466l-6.881-1.286l1.396-7.467l-8.091-1.513l1.287-6.881l8.091,1.513l1.169-6.254 C92.417,104.206,85.289,92.576,87.5,80.6c2.4-13,15-21.6,28-19.2S137.1,76.4,134.7,89.4z"/>
  <rect x="117.137" y="3.677" transform="matrix(-0.184 0.9829 -0.9829 -0.184 186.3111 -60.3174)" fill="#FCFCFC" width="2.113" height="87.004"/>
  <rect x="92.19" y="118.674" transform="matrix(0.1838 -0.983 0.983 0.1838 -80.4901 227.4208)" fill="#FCFCFC" width="9.003" height="87.004"/>
  <rect x="97.006" y="111.343" transform="matrix(-0.1839 0.9829 -0.9829 -0.1839 268.302 86.9359)" fill="#FCFCFC" width="2.113" height="87.004"/>
  <rect x="116.469" y="-1.96" transform="matrix(-0.1838 0.983 -0.983 -0.1838 182.0011 -68.0373)" fill="#FCFCFC" width="5.557" height="87.003"/>
  <path fill="#FCFCFC" d="M114.3,67.9c-9.5-1.8-18.6,4.5-20.3,13.9c-1.8,9.5,4.5,18.6,13.9,20.3c9.5,1.8,18.6-4.5,20.3-13.9 C130,78.8,123.8,69.7,114.3,67.9z"/>
</svg>
