<svg version="1.1" xmlns="http://www.w3.org/2000/svg" x="0px" y="0px" width="216px" height="216px" viewBox="0 0 216 216">
  <path fill="#D85967" d="M216,108c0,59.6-48.4,108-108,108C48.4,216,0,167.6,0,108C0,48.4,48.4,0,108,0C167.6,0,216,48.4,216,108"/>
  <path fill="#FFFFFF" d="M170.2,121.8c-5.2-21.2-21.5-66.9-38.8-72.5c-5.101-1.6-12.4-2.9-20.101-4.2c-13.2-2.3-31.2-5.4-33.6-10.6 c-3.6-7.9-0.5-12-0.4-12.2L76.9,22C84,14.4,88,5.4,89.5,1.6C87,2,84.6,2.5,82.1,3.1c-3,6.3-9.1,16.6-18.5,21.3 c-9.4,4.7-22,5.1-29.5,4.8c-2,1.8-3.9,3.8-5.7,5.8c1.9,0.2,5.3,0.5,9.5,0.5c8.2,0,19.3-1,28.4-5.5c1.2-0.6,2.4-1.3,3.5-2.1 c0.1,2.6,0.7,5.6,2.3,9.1c3.7,8.2,20.4,11.1,38.1,14.1c7.5,1.3,14.6,2.5,19.2,4C142,59.2,157.9,98,164.1,123.2 c4.9,20.2,11.101,57.3,12.801,67.7c1.899-1.5,3.699-3.2,5.399-4.801C180.2,172.3,174.7,140.2,170.2,121.8z"/>
  <path fill="#FFFFFF" d="M102.2,138.9c0,0.199-4.3,21.5-22,28.1c-17.6,6.6-35.9-8.3-36.1-8.5l-3.8,4.6c0.2,0.2,5.3,4.4,13,7.7 c6,2.601,11.9,3.9,17.4,3.9c4.1,0,8-0.7,11.6-2.101c20.8-7.8,25.6-31.6,25.8-32.6L102.2,138.9z"/>
  <path fill="#FFFFFF" d="M114.5,118.1c-3.2-1.8-5.9-1.1-6.4-0.899l1.8,5.7c0,0,0,0-0.101,0c1.601-0.301,5.3,1.6,7.8,11.1 c0.7,2.8,1.9,7,3.301,12.1c-3.5,4.5-15.2,20.4-18.7,36.9c-4,18.3-6.6,31.7-6.7,31.8l4.8,1c0.4,0,0.7,0,1.1,0.101 c0.3-1.4,2.9-14.301,6.6-31.601c2.6-12.1,10.3-24.3,14.9-30.8c6.6,23.7,16.1,57.4,16.199,57.9l2.801-0.801 c1-0.3,1.899-0.699,2.899-1c-1-3.6-17.5-62.1-21.5-77.1C121.5,125.1,118.5,120.2,114.5,118.1z"/>
  <path fill="#FFFFFF" d="M142.3,122.6c-0.399-1.3-1.7-2.1-3-1.699l0,0c-1.3,0.399-2.1,1.699-1.7,3L147.7,160.8 c0.399,1.3,1.7,2.101,3,1.7l0,0c1.3-0.4,2.1-1.7,1.7-3L142.3,122.6z"/>
</svg>
