<svg version="1.1" xmlns="http://www.w3.org/2000/svg" x="0px" y="0px" width="216px" height="216px" viewBox="0 0 216 216">
  <path fill="#D85967" d="M216,108c0,59.6-48.4,108-108,108C48.4,216,0,167.6,0,108C0,48.4,48.4,0,108,0C167.6,0,216,48.4,216,108"/>
  <path fill="#FFFFFF" d="M104.7,85.7c-4.3,0-8.6,2.8-8.6,8.4V147c0,3.6,1.7,6,4.1,7.3c-1.9,1.2-3.3,3.4-3.3,6.4v3.6 c0,5.101,3.9,7.601,7.7,7.601c3.9,0,7.7-2.601,7.7-7.601v-3.6c0-3-1.399-5.101-3.3-6.4c2.4-1.3,4.1-3.7,4.1-7.3V94.1 C113.2,88.5,109,85.7,104.7,85.7z M107.9,164.3c0,2.101-1.6,3.101-3.2,3.101c-1.6,0-3.2-1-3.2-3.101v-3.6 c0-2.101,1.6-3.101,3.2-3.101c1.6,0,3.2,1,3.2,3.101V164.3z M160.1,66.8c-3.199-2.2-7.5-3.6-10.699-3.6l-19.9-9.7 c-8.6-3.9-18.9-4.3-24.8,4.2c-5.8-8.3-16.4-8.3-24.8-4.2L60,63.2c-3.2,0-7.5,1.4-10.7,3.6c-11.6,8.1-4.3,18.6,7.3,10.5 c2.9-2.1,5.6-5.3,6.8-8.2l19.4-9.5c10.2-4.9,18.4-1,18.4,10.7V83c1.1-0.3,2.3-0.5,3.4-0.5s2.3,0.2,3.4,0.5V70.3 c0-11.8,8.2-15.7,18.4-10.7l19.399,9.5c1.2,2.8,3.9,6.1,6.8,8.2C164.4,85.4,171.7,74.9,160.1,66.8z"/>
</svg>
