<svg version="1.1" xmlns="http://www.w3.org/2000/svg" x="0px" y="0px" width="148px" height="148px" viewBox="0 0 148 148">
  <path fill="#9266AB" d="M148,74c0,40.837-33.163,74-74,74S0,114.837,0,74S33.163,0,74,0S148,33.163,148,74"/>
  <path fill="#FFFFFF" d="M61.804,36.041c-4.591,2.33-6.646,7.812-4.591,12.539C64.065,44.674,61.872,36.657,61.804,36.041"/>
  <path fill="#FFFFFF" d="M90.719,48.58c1.986-4.796,0-10.209-4.591-12.539C86.128,36.657,83.867,44.674,90.719,48.58"/>
  <path fill="#FFFFFF" d="M89.898,72.642c0.021-0.004,0.045-0.008,0.065-0.012c2.192-0.753,3.769-2.741,3.769-5.207 c-0.067-3.015-2.535-5.481-5.549-5.481c-0.138,0-0.205,0-0.274,0c-0.822-4.385-1.438-7.605-1.507-8.085 c-0.48-2.535-3.838-6.372-12.334-6.372c-8.496,0-11.785,3.837-12.333,6.372c-0.069,0.479-0.686,3.631-1.507,8.085 c-0.069,0-0.206,0-0.274,0c-3.015,0-5.481,2.466-5.481,5.481c0,2.466,1.576,4.454,3.769,5.207c0.117,0.047,0.238,0.075,0.358,0.106 c-0.194-0.035-0.387-0.07-0.563-0.106c-1.918,10.142-3.906,20.625-3.906,20.625c0,0.959,4.728,1.781,11.511,2.192l2.467,26.312 c0.206,1.232,1.165,2.192,2.741,2.192c1.507,0.068,3.083-0.893,3.083-2.057c0,1.164,1.576,2.125,3.083,2.057 c1.508-0.069,2.467-1.028,2.741-2.192l2.468-26.312c6.782-0.411,11.51-1.233,11.51-2.192C93.803,93.254,91.816,82.779,89.898,72.642 z M88.047,75.165c-0.617,1.37-1.576,2.672-2.879,3.974L74,90.376L62.763,79.139c-1.165-1.096-1.987-2.261-2.604-3.426 c-0.479-0.959-0.822-1.918-1.028-2.878c-0.058-0.012-0.124-0.023-0.185-0.035c0.126,0.016,0.25,0.035,0.39,0.035 c0.206,0,0.411,0.068,0.686,0.068c3.015,0,5.481-2.467,5.481-5.481c0-1.165-0.343-2.261-1.028-3.152 c0.617-0.137,1.233-0.206,1.85-0.206c4.043,0,5.413,1.85,7.812,4.591c2.398-2.741,3.769-4.591,7.742-4.591 c0.686,0,1.303,0.068,1.852,0.206c-0.617,0.891-1.028,1.987-1.028,3.152c0,3.015,2.467,5.481,5.481,5.481 c0.187,0,0.377-0.051,0.614-0.062C88.661,73.594,88.389,74.413,88.047,75.165z M88.934,72.824c0.27-0.053,0.564-0.106,0.844-0.159 C89.514,72.758,89.236,72.812,88.934,72.824z"/>
  <path fill="#FFFFFF" d="M74,24.05c-6.304,0-11.442,5.139-11.442,11.443c0,6.304,5.138,11.442,11.442,11.442 c6.305,0,11.441-5.139,11.441-11.442C85.374,29.189,80.305,24.05,74,24.05 M77.563,41.111c-0.959,0.753-2.19,1.233-3.563,1.233 c-1.302,0-2.604-0.411-3.495-1.165c-0.206-0.137-0.274-0.343-0.274-0.548s0.068-0.479,0.206-0.617c0.274-0.274,0.754-0.274,1.096,0 c0.617,0.548,1.576,0.891,2.535,0.891c0.959,0,1.918-0.343,2.536-0.891c0.342-0.274,0.754-0.274,1.097,0 c0.137,0.137,0.274,0.411,0.274,0.617C77.837,40.769,77.7,40.974,77.563,41.111"/>
</svg>
