<svg version="1.1" xmlns="http://www.w3.org/2000/svg" x="0px" y="0px" width="216px" height="216px" viewBox="0 0 216 216" >
  <path fill="#9266AB" d="M216,108c0,59.6-48.4,108-108,108C48.4,216,0,167.6,0,108C0,48.4,48.4,0,108,0C167.6,0,216,48.4,216,108"/>
  <path fill="#FFFFFF" d="M165.1,169.2L136,34.5l-21.403,4.48L112.3,28.3L50.153,52.468L50,52.5l0.005,0.025L49.3,52.8l28.9,134 l0.725-0.313L79.1,187.3L165.1,169.2z M134.9,156.9L81.8,179.8L55.1,55.9l53.5-20.8L134.9,156.9z M140.6,159.9L115.665,43.95 L132.2,40.5l27,124.9l-60.774,12.681L140.6,159.9z"/>
  <path fill="#FFFFFF" d="M86.7,161.7l-2.5-1.601l3.3-5.3l8.7,1.2l4.4-4.4l6.8-0.6l2.5-2l3.899-2.8c3.601-3.101,4.8-2.5,5.3-2.3 c0.7,0.3,1.101,1,1.101,1.8c0.2,0.5,2,2.1,3.8,3.2l-1.6,2.5c-1.5-1-3.9-2.601-4.801-4.301c-0.6,0.4-1.3,0.9-1.899,1.4l-0.101,0.1 L111.7,151.4l-3.101,2.5l-6.7,0.6l-4.6,4.6L89,158L86.7,161.7z"/>
  <polygon fill="#FFFFFF" points="83.9,149.9 81.4,148.3 84.8,142.9 96.5,145.6 99.6,139.5 107.3,136.3 113.4,137.8 116.9,131.9  120.4,133.7 119.1,136.4 118.1,135.9 114.8,141.2 107.5,139.4 101.7,141.8 98.1,149.1 86.2,146.3 "/>
  <polygon fill="#FFFFFF" points="83.2,139.9 81,138 85.2,133.1 88,134.8 92.2,130.6 94.2,132.7 96.9,131.6 100.1,127.1 103.9,128.3  111,125.1 115.5,124 116.2,126.9 111.8,128 104.1,131.6 101.2,130.6 98.8,134 93.6,136.2 92.2,134.9 88.5,138.6 85.8,137 "/>
  <path fill="#FFFFFF" d="M100.492,95.859l-5.709,0.983l-0.786-4.559c7.761-2.698,12.641-10.729,11.203-19.184 c-1.6-9.2-10.5-15.5-19.8-13.9C76.2,60.8,69.9,69.7,71.5,79c1.472,8.557,9.127,14.557,17.585,14.217l0.771,4.475l-5.821,1.003 l0.849,4.928l5.821-1.003l0.893,5.181l4.928-0.849l-0.893-5.181l5.708-0.984L100.492,95.859z M76.1,78.2C75,71.5,79.5,65,86.3,63.9 c6.7-1.2,13.2,3.3,14.3,10c1.2,6.8-3.3,13.2-10.1,14.4C83.7,89.5,77.3,85,76.1,78.2z"/>
</svg>
