<?xml version="1.0" encoding="UTF-8"?>
<svg width="26px" height="21px" viewBox="0 0 26 21" version="1.1" xmlns="http://www.w3.org/2000/svg" xmlns:xlink="http://www.w3.org/1999/xlink">
    <!-- Generator: Sketch 52.5 (67469) - http://www.bohemiancoding.com/sketch -->
    <title>Slice 1</title>
    <desc>Created with Sketch.</desc>
    <defs>
        <polygon id="path-1" points="0 0.0836555699 25.9355197 0.0836555699 25.9355197 10.4051381 0 10.4051381"></polygon>
    </defs>
    <g id="Page-1" stroke="none" stroke-width="1" fill="none" fill-rule="evenodd">
        <g id="a_icon_donate">
            <g id="Group-6">
                <g id="Group-3" transform="translate(0.000000, 9.754839)">
                    <mask id="mask-2" fill="white">
                        <use xlink:href="#path-1"></use>
                    </mask>
                    <g id="Clip-2"></g>
                    <path d="M7.7380382,0.0836555699 C8.32668989,0.24541729 8.94085468,0.347156645 9.49970861,0.579249548 C11.9482854,1.59587234 14.3800157,2.6521889 16.8198285,3.68981471 C17.4469446,3.95649514 17.8759933,4.37279794 17.9298434,5.07832568 C18.0158285,6.2036246 16.9251918,6.99470589 15.8292966,6.58244955 C15.1336262,6.32077901 14.4581131,6.00679363 13.7743228,5.71429299 C12.7190345,5.26301729 11.6647199,4.80933299 10.6091393,4.35853901 C10.4907273,4.30795837 10.3582929,4.21806933 10.2481581,4.23685643 C10.0929371,4.26335105 9.87685468,4.34293127 9.82787341,4.45844783 C9.78181348,4.56683492 9.89555131,4.76723062 9.98445768,4.89662073 C10.0396712,4.9769717 10.1778509,5.00414073 10.2816562,5.0486517 C11.9607498,5.76824568 13.6622404,6.44101643 15.313776,7.21774245 C17.1091393,8.06219837 18.9566974,6.62705686 18.6927049,4.83987406 C18.6691393,4.6804246 18.7836562,4.43407277 18.9159933,4.3294431 C20.3975064,3.15703191 21.8891468,1.99704912 23.3909146,0.850169118 C24.1350794,0.281835355 25.047806,0.389933419 25.6007199,1.07445815 C26.137761,1.73952138 26.0250944,2.6751188 25.2888172,3.24817342 C22.3702929,5.51967794 19.4396936,7.77615277 16.5146449,10.039468 C16.0120757,10.4283128 15.4654914,10.4884315 14.863791,10.3074973 C12.2456787,9.52026976 9.62045768,8.7556831 7.00740899,7.95236611 C5.99019551,7.6396332 5.09626292,7.74946546 4.29250262,8.46260439 C4.0756412,8.65500353 3.81982846,8.80501127 3.60812809,9.00203492 C3.31725918,9.27266546 3.12561873,9.19462675 2.90242772,8.90684697 C1.99437528,7.73607363 1.07609813,6.5727188 0.146330337,5.41880568 C-0.0645910112,5.15713514 -0.0527108614,4.99498804 0.215955805,4.79006417 C1.8849221,3.51639535 3.53743146,2.22143449 5.21253258,0.955665892 C5.94228539,0.404288688 6.79687715,0.168727398 7.7380382,0.0836555699" id="Fill-1" fill="#FFFFFF" mask="url(#mask-2)"></path>
                </g>
                <path d="M15.9341272,1.68140979 C16.2197481,1.2139328 16.566865,0.829434867 17.0229842,0.545097086 C18.0899825,-0.119773761 19.2053614,-0.176697958 20.3221977,0.375834921 C21.3992995,0.908732256 22.0024066,1.79469178 22.0877043,2.972258 C22.1789282,4.23148166 21.7539941,5.36449031 21.0972602,6.4260369 C20.2814918,7.7447336 19.1770908,8.81005627 17.9339596,9.74104537 C17.3361957,10.1887924 16.6930628,10.5794265 16.0715944,10.9973426 C15.9755131,11.0620077 15.8960444,11.0806992 15.7816017,11.0121636 C13.9233168,9.89945135 12.2505884,8.58462512 11.00736,6.81638774 C10.2124788,5.68583354 9.70943622,4.45219273 9.75257081,3.05146099 C9.79968855,1.52054937 11.0878002,0.174004185 12.6601727,0.0359889675 C14.0228955,-0.0836179277 15.0794988,0.42775583 15.8301767,1.53829688 C15.8587388,1.58049442 15.8901182,1.62099273 15.9341272,1.68140979" id="Fill-4" fill="#FFFFFF"></path>
            </g>
        </g>
    </g>
</svg>