<?xml version="1.0" encoding="UTF-8"?>
<svg width="23px" height="16px" viewBox="0 0 23 16" version="1.1" xmlns="http://www.w3.org/2000/svg" xmlns:xlink="http://www.w3.org/1999/xlink">
    <!-- Generator: Sketch 52.5 (67469) - http://www.bohemiancoding.com/sketch -->
    <title>Slice 1</title>
    <desc>Created with Sketch.</desc>
    <g id="Page-1" stroke="none" stroke-width="1" fill="none" fill-rule="evenodd">
        <path d="M9.09210194,4.57147129 L9.09210194,11.4286782 L14.9973925,8.0002243 L9.09210194,4.57147129 Z M22.2553434,13.5016308 C21.9938131,14.4849487 21.2235773,15.2595209 20.2456426,15.522397 C18.4730984,16 11.3651274,16 11.3651274,16 C11.3651274,16 4.25715648,16 2.48461229,15.522397 C1.50652798,15.2595209 0.736441715,14.4849487 0.474911449,13.5016308 C0,11.719068 0,8.00007477 0,8.00007477 C0,8.00007477 0,4.28093195 0.474911449,2.49851871 C0.736441715,1.51505126 1.50652798,0.740479061 2.48461229,0.477603013 C4.25715648,0 11.3651274,0 11.3651274,0 C11.3651274,0 18.4730984,0 20.2456426,0.477603013 C21.2235773,0.740479061 21.9938131,1.51505126 22.2553434,2.49851871 C22.7302549,4.28093195 22.7302549,8.00007477 22.7302549,8.00007477 C22.7302549,8.00007477 22.7302549,11.719068 22.2553434,13.5016308 Z" id="Fill-1-Copy" fill="#FFFFFF"></path>
    </g>
</svg>