<svg version="1.1" id="Layer_1" xmlns="http://www.w3.org/2000/svg" x="0" y="0" viewBox="0 0 216 216" xml:space="preserve"><style>.st1{fill:#fff}</style><path d="M216 108c0 59.6-48.4 108-108 108S0 167.6 0 108 48.4 0 108 0s108 48.4 108 108" fill="#f9a801"/><path class="st1" d="M159.2 154.8H54.3c-1.3 0-2.5-.7-3.2-1.9-.6-1.2-.6-2.6.1-3.7L103.5 62c.7-1.1 1.8-1.8 3.1-1.8s2.4.7 3.1 1.8l52.6 87.3c.7 1.1.7 2.5.1 3.7-.7 1.1-1.9 1.8-3.2 1.8m-98.5-7.3h92.1l-46.2-76.6-45.9 76.6z"/><path class="st1" d="M102.9 129.1h7.3v7.3h-7.3zM110.2 126.6H103L101.8 97h9.4z"/></svg>