<svg version="1.1" id="Layer_1" xmlns="http://www.w3.org/2000/svg" x="0" y="0" viewBox="0 0 216 216" xml:space="preserve"><style>.st1{fill:#fff}</style><path d="M216 108c0 59.6-48.4 108-108 108S0 167.6 0 108 48.4 0 108 0s108 48.4 108 108" fill="#f9a801"/><path class="st1" d="M113.8 44.6c2.9-1.2 4.8-3.3 4.8-5.6 0-3.7-4.6-6.7-10.5-6.7s-10.5 3-10.5 6.7c0 2.2 1.7 4.2 4.3 5.4-5.1 2-7.6 6.8-7.6 12.3 0 7.3 7.6 13.3 13.3 13.3 5.7 0 13.3-6 13.3-13.3 0-5.4-2.4-10-7.1-12.1zM138.6 87c.6 4.9-3 9.4-7.9 10-4.9.6-9.4-3-10-7.9-.6-4.9 3-9.4 7.9-10 5-.5 9.4 2.9 10 7.9z"/><path class="st1" d="M140.6 77.4c-3.5-3.3-7.4-4.7-11.4-4.3-1.8.1-3.5.6-5 1.3-1.7-2-3.9-2.4-5-3.1-.3-.1-3.6 3.7-10.8 4-7.2.3-11.1-3.9-11.4-3.9-1.2.1-5.2 1-7.2 4.3-2.2 3.9-5.2 25.1-6.4 29.6-.7 2.7-1.9 8.5-2.5 11.2s5.1 3.3 5.1 3.3l.7.1c-1 5.4-2.2 15.1-3.3 20.6h15.7c1.2 14.3 1.5 23.8 3.1 38.4h11.5c1.6-15.4 2.4-23 4-38.5h15.4c-1.2-5.7-2.2-15.7-3.4-21.4 1.6.1 4.6-.8 4.2-2.7-.5-2.1-1.3-6-2-8.9l7.1-7.2c2.1-1.9 6-6.8 6.1-12.8.1-3.7-1.5-7.2-4.5-10zM137 97.7l-6.7 6.8h-12.2s-6.6-.3-6.7 5.5c-.1 5.8 6.6 6.7 6.6 6.7h.2l-3.3 3.3c-3.5 3.3-11.5 4.8-17.5-.9-2-1.9-3-4.2-3-6.7 0-3.1 1.5-6.7 4.2-9.4l21.8-21.9.1-.1c1.2-1.8 4.9-4.7 9.1-5.1h1c2.8 0 5.5 1.2 7.9 3.4 2.4 2.3 3.6 5 3.6 7.8 0 4.5-3 8.8-5.1 10.6z"/></svg>