<svg version="1.1" id="Layer_1" xmlns="http://www.w3.org/2000/svg" x="0" y="0" viewBox="0 0 216 216" xml:space="preserve"><style>.st1{fill:#fcfcfc}</style><path d="M216 108c0 59.6-48.4 108-108 108S0 167.6 0 108 48.4 0 108 0s108 48.4 108 108" fill="#f9a801"/><path class="st1" d="M65.2 154.3L82.5 137c4.3 1.7 9.3.8 12.7-2.7l57.1-57.1c2.2-2.2 5.2-6.8 7.3-11.6 1.9-.5 3.7-1.4 5.1-2.9 4.3-4.3 4.3-11.2 0-15.5s-11.3-4.3-15.5 0c-1.5 1.5-2.4 3.3-2.9 5.1-4.8 2.1-9.4 5.1-11.6 7.3l-57.1 57.1c-3.4 3.4-4.3 8.5-2.7 12.7l-17.3 17.3 7.6 7.6zm31.5-49.8l22.4-22.4c1.1-1.1 2.9-1.1 4.1 0l6.7 6.7c1.1 1.1 1.1 2.9 0 4.1l-22.4 22.4c-1.1 1.1-2.9 1.1-4.1 0l-6.7-6.7c-1.1-1.2-1.1-3 0-4.1zM61.9 157.5l-7.4-7.4c-2 2-2 5.3 0 7.4 2.1 2 5.3 2 7.4 0z"/><path transform="rotate(-45.009 113.793 98.113)" class="st1" d="M112 93h3.6v10.2H112z"/></svg>