<svg xmlns="http://www.w3.org/2000/svg" viewBox="0 0 148 148"><path d="M148 74c0 40.8-33.2 74-74 74S0 114.8 0 74 33.2 0 74 0s74 33.2 74 74" fill="#f9a801"/><path d="M96.5 60.6c-.3 1.9-2 2.9-3.8 2.4l-2-.6c-1.8-.5-3-2.6-2.8-4.5l.5-2.4c.5-2.4 2.9-3.7 5.2-2.8l-.5-.2c2.4.9 3.9 3.6 3.6 6l-.2 2.1zM59.3 35.8c-.5-1.8-2.5-2.9-4.3-2.5l-.5.1c-1.8.4-3 2.3-2.6 4.1l1.4 5.6c.2.7.5 1.4 1 2 .5.6 1.1 1.1 1.8 1.4.7.3 1.4.5 2.2.5.2 0 .5 0 .7-.1.2-.1.3-.1.5-.2.3-.1.7-.3.9-.6.5-.5.9-1.1 1.2-1.8.3-.7.3-1.5.1-2.2-.1-.2-.1-.4-.2-.6-.1.2-2.2-5.7-2.2-5.7zm-.5 13.5c.1-.1.3-.1.5-.1.3-.1.5-.1.7 0 .8 0 1.6.2 2.3.5.7.3 1.4.8 1.9 1.4.5.5.9 1.2 1.2 2v.1c.9 2.6 0 5.2-.3 7.7-.3 2-3 2.6-4.7 2.2-1.9-.4-3-2.1-3.5-3.9l-1-4.2c-.1-.3-.1-.7-.1-1.1 0-.7.1-1.5.5-2.2.3-.7.8-1.3 1.4-1.7.4-.3.7-.5 1.1-.7zm21.6-18.9c-.1-2.3-2.2-4.1-4.5-4.1h-.6c-2.3 0-4 1.8-3.9 4.1l.8 10.8c.1 1.4.7 2.6 1.6 3.5 1.3 1.3 3.1 2.1 4.9 1.4 1.4-.6 2.4-2 2.4-3.5v-.5l-.7-11.7zm-3.1 18.3c2.4.3 4.6 2.6 4.8 5.1l.1 1.7c.1.6-.1 1.2-.3 1.8-.3.8-.7 1.5-1.3 2.2-.4.5-.9 1-1.4 1.4-1.2.7-3-.3-3.9-1.2-1.2-.9-1.8-2.4-2-3.9l-.2-3.1c-.2-2.6 1.7-4.4 4.2-4M106.5 59c-1.6-.9-3.6-.3-4.3 1.3-.7 1.8-.6 3.8 0 5.6.5 1.5 1.4 3.9 3.3 3.9 1.8 0 3.7-1.6 4.1-3.3l.3-.9c.6-2.2-.4-4.9-2.4-6l-1-.6zm-.3-9.3c.8-2.1 3.2-3.3 5.4-2.5l-.3-.1c2 .7 3.1 2.8 2.6 4.9l-.9 3c-.6 2.2-2.6 2.8-4.5 1.6l-.5-.3c-1.8-1.2-2.7-3.9-1.9-6l.1-.6zM91.4 37.3c.4-2.4 2.7-4.2 5.2-3.9l-.3-.1c2.3.3 3.9 2.3 3.5 4.6l-.8 5.5c-.2 1.5-1.1 2.8-2.4 3.4-3.1 1.5-6.5-1.6-6-4.8l.8-4.7zM79.2 86.9l7.1-7.1c.7-.7 1.8-.7 2.5 0l2.4 2.4c.7.7.7 1.8 0 2.4L84 91.7l7.3 7.3c.7.7.7 1.8 0 2.5l-2.4 2.4c-.7.7-1.8.7-2.4 0l-7.3-7.3-7.5 7.5c-.7.7-1.8.7-2.4 0l-2.4-2.4c-.7-.7-.7-1.8 0-2.5l7.5-7.5-7.4-7.2c-.7-.7-.7-1.8 0-2.5l2.4-2.4c.7-.7 1.8-.7 2.5 0l7.3 7.3zm-22-1.8c-1.2 3.7-5.8 7.9-7.3 5-1.7-3.5 0-5-4.9-8.3-3.7-1.8-4.9-2.7-6-3.1l-2.1-.7c-1.8-.5-4 .3-4.8 2l-.7 1.4c-.8 1.7-.2 3.8 1.5 4.7 0 0 5.4 2.8 7.6 4.6 4 3.3 11.3 12.1 11.3 12.1s10.7 13.1 26.8 13.1c13.8 0 18-5.2 20-6.9 4.8-3.5 6.6-12.2 6.6-12.2 2.8-7 1.6-14-2.2-19.7-.2 0-8.2-12.9-32.3-8.5-4.9 1.1-14.8 7.7-13.8 11.5 1.1 3.7.3 5 .3 5" fill="#fff"/></svg>