<svg version="1.1" id="Layer_1" xmlns="http://www.w3.org/2000/svg" x="0" y="0" viewBox="0 0 148 148" xml:space="preserve"><style>.st1{fill:#fff}</style><path d="M148 74c0 40.8-33.2 74-74 74S0 114.8 0 74 33.2 0 74 0s74 33.2 74 74" fill="#f9a801"/><path class="st1" d="M33 101.5V49c1.4-2.3 3.4-2.7 5.9-2.6 6.6.1 13.4 0 20 .1 1.2 0 1.8-.3 1.7-1.6-.1-1.2-.1-2.4 0-3.6.1-3.6 2.4-6.6 6.5-6.6 4.9.1 9.7 0 14.5.1 2.5 0 4.6 1.7 5.2 4 .3 1.4.5 2.9.5 4.5.1 3.8-.3 3.2 3.2 3.2 6.2 0 12.3.1 18.6 0 2.5-.1 4.5.3 5.9 2.6v52.5c-1.2 1.4-2.3 2.5-4.5 2.5-23.8-.1-47.6-.1-71.4 0-2.4-.2-4.6-.4-6.1-2.6m40.9-2.8c12.7.5 23.8-10.4 23.7-23.5-.1-12.9-10.3-23.6-23.6-23.6-13.4-.1-23.7 10.8-23.7 23.6 0 13.1 11 23.9 23.6 23.5m.3-57.7h-3.4c-4.3.1-3.6-.7-3.7 3.8-.1 1.3.5 1.7 1.7 1.7 2.8-.1 5.7 0 8.6 0 4.2-.1 3.6.5 3.7-3.8 0-1.2-.3-1.6-1.6-1.6-1.8-.1-3.6-.1-5.3-.1"/><path class="st1" d="M88.8 74.7c0 5.3-.2 5.6-5.7 5.6-3.7 0-3.7 0-3.6 3.6.1 5.3-.3 5.8-5.8 5.8h-1.4c-2.7-.1-3.7-1-3.7-3.8v-2c0-3.6 0-3.6-3.7-3.6h-2.4c-2.1-.1-3.2-1.1-3.3-3.2-.1-1.6 0-3.2 0-4.7.1-2 1-2.9 3.1-3 1.6-.1 3.2-.1 4.7 0 1.1 0 1.6-.4 1.6-1.5 0-1.6-.1-3.2 0-4.7.1-2.2 1.2-3.3 3.4-3.3h4c2.1 0 3.3 1 3.4 3.2.1 1.6.1 3.2.1 4.7-.1 1.2.5 1.7 1.7 1.6 1.4-.1 2.9-.1 4.4 0 2.3.1 3.2 1 3.2 3.2v2.1"/></svg>