<svg version="1.1" id="Layer_1" xmlns="http://www.w3.org/2000/svg" x="0" y="0" viewBox="0 0 148 148" xml:space="preserve"><style>.st1{fill:#fff}</style><path d="M148 74c0 40.8-33.2 74-74 74S0 114.8 0 74 33.2 0 74 0s74 33.2 74 74" fill="#f9a801"/><path class="st1" d="M73.2 34.2c-1.6 0-3.1.5-4.4 1.2-.2-1.3-.8-3.2-3-3.6-4.2-.9-6.6 3.6-6.9 8.5 0 .8-.2 1.5-.5 2.1-.3.5-.7.8-1.1 1-.5.3-1.3.3-1.9.2-.1 0-.1-.1-.2 0s-.1.1-.1.2l.1.1c.2.2.5.3.8.3.3.1.6.2.9.2.6.1 1.3.1 1.9-.1.4-.1.8-.3 1.1-.6 2.3-2 3.8-7.3 6.2-6.9.2 0 .5.2.7.4-1.2 1.4-1.8 3.2-1.8 5.2 0 4.6 3.7 8.3 8.3 8.3s8.3-3.7 8.3-8.3-3.8-8.2-8.4-8.2z"/><path class="st1" d="M101.9 43.6c-.5-1-2.9-1.6-4.4-1.5-1.2.1-2.5 1.3-3.8 2.1-3.8 2.5-7.4 5.3-11.4 7.6-4.4 2.5-9.5 4-14.3 2.1-4.7-2-9-4.9-13.4-7.5-2.1-1.3-3.8-3.1-6-4.1-1.2-.5-3.4-.3-4.5.5-.9.8-1.2 2.8-1 4.2.1.9 1.3 1.8 2.2 2.5 4.5 3.6 9 7.1 13.5 10.8 3.4 2.8 4.8 6.4 4.7 10.8 0 1.8-.1 3.8-.1 5.8l-8 20.5h8v18.2c0 3.8 1.4 5.4 4.2 5.4 2.9.1 4.2-1.5 4.2-5.3V97.4h1.3v18.8c.1 3.4 1.8 5 4.9 4.7 2.4-.2 3.6-1.9 3.6-5.1 0-5.2.2-11.8.3-18.4h7.8l-8.2-20.2c-.9-11 3.5-18.3 12.4-23.5.5-.2.8-.5 1.2-.8 2.1-1.4 4.4-2.7 6-4.6.9-1.1 1.4-3.6.8-4.7z"/></svg>