<svg xmlns="http://www.w3.org/2000/svg" viewBox="0 0 148 148"><path d="M148 74c0 40.8-33.2 74-74 74S0 114.8 0 74 33.2 0 74 0s74 33.2 74 74" fill="#f9a801"/><path d="M87 54.7c-.5-6.8-6.2-12.2-13-12.2s-12.5 5.4-13 12.2c-13.8 3.7-23.6 13.2-23.6 24.5 0 14.7 16.6 26.2 36.7 26.2s36.7-11.5 36.7-26.2c-.1-11.4-10-20.8-23.8-24.5zm-20.8 6.1v-5.2c0-4.4 3.5-7.9 7.9-7.9 4.3 0 7.9 3.6 7.9 7.9v5.2c0 3.2 1.6 7.4 3.8 9.8l3.5 3.8c1 1.1 2.6 1.2 3.7.2s1.2-2.6.2-3.7l-3.6-3.8c-1.2-1.4-2.4-4.4-2.4-6.2v-.5c8 2.8 13.2 8 13.2 13.6 0 8.4-11.5 15.8-26.2 15.8S48 82.4 48 74c0-5.6 5.2-10.8 13-13.5v.4c0 1.9-1.2 4.9-2.4 6.2L55 70.9c-1 1.1-.9 2.7.2 3.7s2.7.9 3.7-.2l3.5-3.8c2.1-2.4 3.8-6.6 3.8-9.8zm7.7 39.4c-17.5 0-31.4-9.6-31.4-21 0-1 .1-1.9.3-2.9C44.6 87 58 95 74.1 95c15.6 0 28.9-7.5 31.1-17.9.1.7.2 1.4.2 2.2-.1 11.2-13.9 20.9-31.5 20.9z" fill="#fff"/></svg>