<svg version="1.1" id="Layer_1" xmlns="http://www.w3.org/2000/svg" x="0" y="0" viewBox="0 0 148 148" xml:space="preserve"><style>.st1{fill:#fff}</style><path d="M148 74c0 40.8-33.2 74-74 74S0 114.8 0 74 33.2 0 74 0s74 33.2 74 74" fill="#f9a801"/><path class="st1" d="M61.8 36c-4.6 2.3-6.6 7.8-4.6 12.5 6.9-3.8 4.7-11.8 4.6-12.5M90.7 48.6c2-4.8 0-10.2-4.6-12.5 0 .6-2.2 8.6 4.6 12.5M89.9 72.6c2.3-.8 3.8-2.8 3.8-5.2-.1-3-2.5-5.5-5.5-5.5h-.3c-.8-4.4-1.4-7.6-1.5-8.1-.5-2.5-3.8-6.4-12.3-6.4s-11.8 3.8-12.3 6.4c-.1.5-.7 3.6-1.5 8.1H60c-3 0-5.5 2.5-5.5 5.5 0 2.5 1.6 4.5 3.8 5.2.1 0 .2.1.4.1-.2 0-.4-.1-.6-.1-1.9 10.1-3.9 20.6-3.9 20.6 0 1 4.7 1.8 11.5 2.2l2.5 26.3c.2 1.2 1.2 2.2 2.7 2.2 1.5.1 3.1-.9 3.1-2.1 0 1.2 1.6 2.1 3.1 2.1 1.5-.1 2.5-1 2.7-2.2l2.5-26.3c6.8-.4 11.5-1.2 11.5-2.2 0 .1-2-10.4-3.9-20.6zM88 75.2c-.6 1.4-1.6 2.7-2.9 4L74 90.4 62.8 79.1c-1.2-1.1-2-2.3-2.6-3.4-.5-1-.8-1.9-1-2.9H59h.4c.2 0 .4.1.7.1 3 0 5.5-2.5 5.5-5.5 0-1.2-.3-2.3-1-3.2.6-.1 1.2-.2 1.8-.2 4 0 5.4 1.8 7.8 4.6 2.4-2.7 3.8-4.6 7.7-4.6.7 0 1.3.1 1.9.2-.6.9-1 2-1 3.2 0 3 2.5 5.5 5.5 5.5.2 0 .4-.1.6-.1-.2.8-.5 1.6-.9 2.4zm.9-2.4c.3-.1.6-.1.8-.2-.2.2-.5.2-.8.2zM74 24c-6.3 0-11.4 5.1-11.4 11.4S67.7 46.9 74 46.9c6.3 0 11.4-5.1 11.4-11.4C85.4 29.2 80.3 24 74 24m3.6 17.1c-1 .8-2.2 1.2-3.6 1.2-1.3 0-2.6-.4-3.5-1.2-.2-.1-.3-.3-.3-.5s.1-.5.2-.6c.3-.3.8-.3 1.1 0 .6.5 1.6.9 2.5.9 1 0 1.9-.3 2.5-.9.3-.3.8-.3 1.1 0 .1.1.3.4.3.6-.1.2-.2.4-.3.5"/></svg>