<svg xmlns="http://www.w3.org/2000/svg" width="128" height="142"><path fill="#F9A801" d="M43.208 78.476c.11 8.585-.327 14.747-.327 14.747H28.252l-2.401 44.025c0 1.542-1.201 2.752-2.838 2.752-1.528 0-2.729-1.21-2.729-2.751l-2.401-44.026H11.77l3.93-49.307-8.296 34.78c-.328 1.76-1.966 2.861-3.603 2.861-.327 0-.546 0-.874-.109-2.073-.44-3.274-2.423-2.838-4.513 0 0 6.114-35.111 8.952-41.055 1.418-3.082 2.183-5.393 4.039-7.154 1.747-1.542 4.584-2.532 9.933-2.532 7.86 0 12.663 7.044 15.61 16.51 8.733 1.651 15.283 9.355 15.283 18.601.107 7.704-4.259 14.198-10.698 17.171M28.948 0c-6.596 0-11.963 5.228-11.963 11.544 0 0 .895 8.386-2.795 9.692-2.236.871 3.913.435 8.721.218 1.789.98 3.689 1.742 6.037 1.742 6.597 0 11.853-5.227 11.853-11.652C40.801 5.119 35.545 0 28.948 0"/></svg>