<svg xmlns="http://www.w3.org/2000/svg" width="148" height="148"><path d="M111.8 56.8c-.4 3.1-3.2 4.8-6.2 3.9l-3.3-1c-3-.9-5-4.2-4.6-7.4l.9-4c.9-3.9 4.8-6 8.6-4.6l-.9-.3c3.9 1.4 6.5 5.9 5.9 9.9l-.4 3.5zM50.6 16c-.9-3-4.1-4.8-7.1-4.1l-.8.2c-3 .7-5 3.8-4.3 6.8l2.2 9.3c.3 1.2.9 2.3 1.7 3.3s1.8 1.8 2.9 2.3 2.3.9 3.7.9c.3 0 .8 0 1.1-.1s.6-.1.9-.3c.6-.2 1.1-.6 1.6-1 .9-.8 1.6-1.8 2-2.9.4-1.2.4-2.5.2-3.7-.1-.3-.2-.7-.3-1-.4 0-3.8-9.7-3.8-9.7zm-.8 22.2c.2-.1.4-.2.8-.2.4-.1.8-.1 1.2 0 1.3 0 2.6.3 3.8.9 1.2.6 2.2 1.3 3.1 2.2.9.9 1.6 2 2 3.2v.1c1.6 4.3 0 8.5-.6 12.7-.4 3.2-4.9 4.2-7.7 3.6-3.1-.7-5-3.5-5.7-6.4L45 47.4c-.1-.6-.2-1.1-.2-1.8 0-1.2.2-2.5.8-3.7.6-1.1 1.3-2.1 2.3-2.8.7-.3 1.1-.6 1.9-.9-.1.1-.1.1 0 0zm35.4-31C85 3.4 81.6.4 77.8.4h-1c-3.8 0-6.6 3-6.4 6.7l1.3 17.7c.1 2.2 1.2 4.2 2.7 5.8 2.1 2.1 5.1 3.5 8 2.2 2.3-1 3.9-3.2 4-5.8v-.9L85.2 7.2zm-5.1 30c4 .6 7.6 4.2 7.9 8.4l.2 2.8c.1 1-.1 2-.4 2.9-.4 1.3-1.2 2.5-2.1 3.6-.7.8-1.4 1.7-2.2 2.2-2 1.1-4.9-.6-6.5-1.9-1.9-1.6-3-3.9-3.2-6.4l-.3-5.1c-.5-4.2 2.5-7.1 6.6-6.5m48.1 17c-2.7-1.6-5.9-.4-7 2.1-1.1 2.9-1 6.2 0 9.1.8 2.5 2.3 6.4 5.5 6.4 3 0 6-2.6 6.8-5.4l.4-1.4c1-3.7-.7-8-4-9.9l-1.7-.9zm-.5-15.3c1.3-3.5 5.2-5.4 8.9-4.1l-.6-.2c3.2 1.1 5.1 4.6 4.2 8l-1.4 5c-1 3.6-4.3 4.7-7.4 2.7l-.8-.6c-3-2-4.5-6.5-3.1-9.9l.2-.9zm-24.4-20.5c.7-4 4.5-6.9 8.6-6.4l-.6-.1c3.8.4 6.4 3.8 5.8 7.6l-1.2 9c-.3 2.5-1.8 4.6-4 5.6-5.1 2.5-10.7-2.6-9.8-7.9l1.2-7.8zm-20 81.7L95 88.4c1.1-1.1 2.9-1.1 4.1 0l4 4c1.1 1.1 1.1 2.9 0 4l-11.8 11.7 12 12c1.1 1.1 1.1 2.9 0 4.1l-4 4c-1.1 1.1-2.9 1.1-4 0l-12-12L71 128.7c-1.1 1.1-2.9 1.1-4 0l-4-4c-1.1-1.1-1.1-2.9 0-4.1l12.4-12.4-12-12c-1.1-1.1-1.1-2.9 0-4.1l4-4c1.1-1.1 2.9-1.1 4.1 0l11.8 12zM47.1 97c-2 6-9.6 13-12 8.2-2.8-5.7 0-8.2-8.1-13.7-6.1-2.9-8.1-4.5-9.9-5.1l-3.5-1.1c-3-.9-6.6.6-7.9 3.3L4.5 91c-1.3 2.8-.3 6.2 2.5 7.7 0 0 8.8 4.6 12.5 7.6 6.6 5.5 18.6 19.8 18.6 19.8s17.6 21.5 44.1 21.5c22.7 0 29.5-8.5 32.9-11.4 7.9-5.7 10.9-20.1 10.9-20.1 4.7-11.6 2.7-23.1-3.7-32.4-.3 0-13.5-21.2-53.2-14-8.1 1.8-24.4 12.7-22.6 18.8 1.8 6.4.6 8.5.6 8.5" fill="#f8a81b"/></svg>