<svg xmlns="http://www.w3.org/2000/svg" width="128" height="142"><path fill="#F9A801" d="M99.507 19.389c3.065 1.43 3.955 3.873 2.649 6.671L84.507 63.911l-3.604 7.731-3.605 7.729-7.207 15.46-3.607 7.731-3.603 7.731-12.369 26.521c-.684 1.467-1.581 2.346-2.62 2.835-1.235.56-2.718.436-4.318-.31L3.19 120.511c-3.066-1.43-3.955-3.873-2.525-6.938l17.65-37.851 7.209-15.46 3.612-7.401 10.814-23.19L52.319 3.147C52.905 1.716 53.8.837 54.841.348c1.235-.56 2.719-.437 4.318.309L77.02 8.985l22.488 10.406m-76.387 93.531a5.268 5.268 0 00-2.561-7.035 5.284 5.284 0 00-7.029 2.538l-.012.024a5.27 5.27 0 002.516 7.015l.045.021a5.285 5.285 0 004.053.185 5.285 5.285 0 002.988-2.748m.166-12.898a5.283 5.283 0 007.029-2.536l.012-.025a5.266 5.266 0 00-2.559-7.034 5.28 5.28 0 00-7.041 2.562 5.266 5.266 0 002.559 7.033m22.881 23.653c1.243-2.664.069-5.89-2.561-7.035a5.275 5.275 0 00-7.035 2.561 5.272 5.272 0 002.561 7.035 5.27 5.27 0 007.035-2.561M30.433 84.699a5.287 5.287 0 007.041-2.563 5.265 5.265 0 00-2.559-7.033 5.278 5.278 0 00-7.042 2.563 5.265 5.265 0 002.511 7.01l.049.023m22.952 23.516a5.272 5.272 0 00-2.517-7.016l-.044-.02a5.281 5.281 0 00-7.041 2.562 5.27 5.27 0 002.517 7.015l.044.021a5.279 5.279 0 007.041-2.562M37.579 69.373a5.284 5.284 0 007.029-2.538l.012-.025a5.267 5.267 0 00-2.561-7.036 5.28 5.28 0 00-7.041 2.564 5.269 5.269 0 002.561 7.035m22.952 23.515a5.272 5.272 0 00-2.518-7.015c-.015-.007-.028-.015-.044-.021a5.284 5.284 0 00-7.03 2.537l-.013.026a5.27 5.27 0 002.517 7.015l.044.021a5.284 5.284 0 007.029-2.537l.015-.026M44.824 54.01c1.2.56 2.748.549 4.054.184a5.283 5.283 0 002.988-2.747 5.268 5.268 0 00-2.561-7.035 5.284 5.284 0 00-7.03 2.536l-.012.027a5.27 5.27 0 002.515 7.014c.015.007.031.013.046.021m22.854 23.551a5.27 5.27 0 00-2.518-7.014l-.042-.021a5.286 5.286 0 00-7.031 2.536l-.013.026a5.27 5.27 0 002.562 7.036 5.282 5.282 0 007.042-2.563M51.935 38.585a5.283 5.283 0 007.043-2.563 5.27 5.27 0 00-2.562-7.035 5.285 5.285 0 00-7.03 2.536c-.004.009-.008.019-.013.027a5.269 5.269 0 002.516 7.014c.015.007.03.015.046.021m22.952 23.516c1.181-2.533.008-5.757-2.562-7.035a5.286 5.286 0 00-7.031 2.536l-.012.028a5.27 5.27 0 002.515 7.015l.046.021a5.282 5.282 0 007.029-2.535l.015-.03M59.081 23.259a5.284 5.284 0 007.029-2.536l.013-.027a5.268 5.268 0 00-2.562-7.035 5.283 5.283 0 00-7.028 2.536l-.013.027a5.269 5.269 0 002.561 7.035M82.04 46.772a5.265 5.265 0 00-2.562-7.036 5.293 5.293 0 00-7.039 2.545c-.002.007-.006.014-.01.021a5.265 5.265 0 002.508 7.01l.053.025a5.293 5.293 0 007.039-2.544l.011-.021m7.147-15.327a5.266 5.266 0 00-2.56-7.035 5.294 5.294 0 00-7.041 2.544c-.003.007-.006.015-.01.021a5.265 5.265 0 002.508 7.011c.018.008.035.017.053.024a5.294 5.294 0 007.04-2.544l.01-.021"/></svg>